<?xml version="1.0" encoding="utf-8" standalone="no"?>
<!DOCTYPE svg PUBLIC "-//W3C//DTD SVG 1.1//EN"
  "http://www.w3.org/Graphics/SVG/1.1/DTD/svg11.dtd">
<svg xmlns:xlink="http://www.w3.org/1999/xlink" width="474.669083pt" height="395.992907pt" viewBox="0 0 474.669083 395.992907" xmlns="http://www.w3.org/2000/svg" version="1.1">
 <metadata>
  <rdf:RDF xmlns:dc="http://purl.org/dc/elements/1.1/" xmlns:cc="http://creativecommons.org/ns#" xmlns:rdf="http://www.w3.org/1999/02/22-rdf-syntax-ns#">
   <cc:Work>
    <dc:type rdf:resource="http://purl.org/dc/dcmitype/StillImage"/>
    <dc:date>2025-02-08T12:12:24.294678</dc:date>
    <dc:format>image/svg+xml</dc:format>
    <dc:creator>
     <cc:Agent>
      <dc:title>Matplotlib v3.5.1, https://matplotlib.org/</dc:title>
     </cc:Agent>
    </dc:creator>
   </cc:Work>
  </rdf:RDF>
 </metadata>
 <defs>
  <style type="text/css">*{stroke-linejoin: round; stroke-linecap: butt}</style>
 </defs>
 <g id="figure_1">
  <g id="patch_1">
   <path d="M 0 395.992907 
L 474.669083 395.992907 
L 474.669083 0 
L 0 0 
z
" style="fill: #ffffff"/>
  </g>
  <g id="axes_1">
   <g id="patch_2">
    <path d="M 392.2344 197.9172 
C 392.2344 172.399699 387.208009 147.130324 377.442884 123.555227 
C 367.677759 99.98013 353.363808 78.557788 335.32021 60.51419 
C 317.276612 42.470592 295.85427 28.156641 272.279173 18.391516 
C 248.704076 8.626391 223.434701 3.6 197.9172 3.6 
C 172.399699 3.6 147.130324 8.626391 123.555227 18.391516 
C 99.98013 28.156641 78.557788 42.470592 60.51419 60.51419 
C 42.470592 78.557788 28.156641 99.98013 18.391516 123.555227 
C 8.626391 147.130324 3.6 172.399699 3.6 197.9172 
C 3.6 223.434701 8.626391 248.704076 18.391516 272.279173 
C 28.156641 295.85427 42.470592 317.276612 60.51419 335.32021 
C 78.557788 353.363808 99.98013 367.677759 123.555227 377.442884 
C 147.130324 387.208009 172.399699 392.2344 197.9172 392.2344 
C 223.434701 392.2344 248.704076 387.208009 272.279173 377.442884 
C 295.85427 367.677759 317.276612 353.363808 335.32021 335.32021 
C 353.363808 317.276612 367.677759 295.85427 377.442884 272.279173 
C 387.208009 248.704076 392.2344 223.434701 392.2344 197.9172 
M 197.9172 197.9172 
C 197.9172 197.9172 197.9172 197.9172 197.9172 197.9172 
C 197.9172 197.9172 197.9172 197.9172 197.9172 197.9172 
C 197.9172 197.9172 197.9172 197.9172 197.9172 197.9172 
C 197.9172 197.9172 197.9172 197.9172 197.9172 197.9172 
C 197.9172 197.9172 197.9172 197.9172 197.9172 197.9172 
C 197.9172 197.9172 197.9172 197.9172 197.9172 197.9172 
C 197.9172 197.9172 197.9172 197.9172 197.9172 197.9172 
C 197.9172 197.9172 197.9172 197.9172 197.9172 197.9172 
C 197.9172 197.9172 197.9172 197.9172 197.9172 197.9172 
C 197.9172 197.9172 197.9172 197.9172 197.9172 197.9172 
C 197.9172 197.9172 197.9172 197.9172 197.9172 197.9172 
C 197.9172 197.9172 197.9172 197.9172 197.9172 197.9172 
C 197.9172 197.9172 197.9172 197.9172 197.9172 197.9172 
C 197.9172 197.9172 197.9172 197.9172 197.9172 197.9172 
C 197.9172 197.9172 197.9172 197.9172 197.9172 197.9172 
C 197.9172 197.9172 197.9172 197.9172 197.9172 197.9172 
M 392.2344 197.9172 
z
" style="fill: #ffffff"/>
   </g>
   <g id="patch_3">
    <path d="M 312.88821 197.9172 
L 285.990103 124.015259 
L 215.926613 95.780741 
L 140.431695 98.349385 
L 89.87979 158.594799 
L 92.091082 236.434757 
L 150.13389 280.680321 
L 217.881706 311.141542 
L 285.990103 271.819141 
z
" clip-path="url(#pea70fced03)" style="fill: #ff0000; opacity: 0.2; stroke: #ff0000; stroke-linejoin: miter"/>
   </g>
   <g id="patch_4">
    <path d="M 312.015896 197.9172 
L 281.434608 127.837773 
L 217.881706 84.692858 
L 154.92452 123.451693 
L 138.160244 176.167447 
L 89.87979 237.239601 
L 140.431695 297.485015 
L 212.397893 280.041294 
L 262.503996 252.111957 
z
" clip-path="url(#pea70fced03)" style="fill: #9400d3; opacity: 0.2; stroke: #9400d3; stroke-linejoin: miter"/>
   </g>
   <g id="patch_5">
    <path d="M 277.995642 197.9172 
L 271.943994 135.801345 
L 215.325046 99.192397 
L 186.339134 177.863401 
L 185.253474 193.307981 
L 157.482146 212.634356 
L 175.602152 236.567998 
L 207.199696 250.56085 
L 240.392075 233.557852 
z
" clip-path="url(#pea70fced03)" style="fill: #0000ff; opacity: 0.2; stroke: #0000ff; stroke-linejoin: miter"/>
   </g>
   <g id="matplotlib.axis_1"/>
   <g id="matplotlib.axis_2"/>
   <g id="line2d_1">
    <path d="M 312.88821 197.9172 
L 285.990103 124.015259 
L 215.926613 95.780741 
L 140.431695 98.349385 
L 89.87979 158.594799 
L 92.091082 236.434757 
L 150.13389 280.680321 
L 217.881706 311.141542 
L 285.990103 271.819141 
L 312.88821 197.9172 
" clip-path="url(#pea70fced03)" style="fill: none; stroke: #ff0000; stroke-width: 2; stroke-linecap: square"/>
   </g>
   <g id="line2d_2">
    <path d="M 312.015896 197.9172 
L 281.434608 127.837773 
L 217.881706 84.692858 
L 154.92452 123.451693 
L 138.160244 176.167447 
L 89.87979 237.239601 
L 140.431695 297.485015 
L 212.397893 280.041294 
L 262.503996 252.111957 
L 312.015896 197.9172 
" clip-path="url(#pea70fced03)" style="fill: none; stroke: #9400d3; stroke-width: 2; stroke-linecap: square"/>
   </g>
   <g id="line2d_3">
    <path d="M 277.995642 197.9172 
L 271.943994 135.801345 
L 215.325046 99.192397 
L 186.339134 177.863401 
L 185.253474 193.307981 
L 157.482146 212.634356 
L 175.602152 236.567998 
L 207.199696 250.56085 
L 240.392075 233.557852 
L 277.995642 197.9172 
" clip-path="url(#pea70fced03)" style="fill: none; stroke: #0000ff; stroke-width: 2; stroke-linecap: square"/>
   </g>
   <g id="line2d_4">
    <path d="M 278.8827 197.9172 
L 278.721324 192.807821 
L 278.237839 187.718809 
L 277.434172 182.670452 
L 276.313527 177.682872 
L 274.880372 172.775952 
L 273.140419 167.969253 
L 271.100604 163.281935 
L 268.769058 158.732683 
L 266.155076 154.339632 
L 263.269078 150.120295 
L 260.122569 146.091489 
L 256.72809 142.269276 
L 253.099174 138.668893 
L 249.250286 135.30469 
L 245.19677 132.190079 
L 240.954783 129.337476 
L 236.541236 126.758251 
L 231.973723 124.462687 
L 227.27045 122.459934 
L 222.450166 120.757976 
L 217.532087 119.363598 
L 212.535817 118.282357 
L 207.481273 117.518564 
L 202.388603 117.075263 
L 197.27811 116.954222 
L 192.170164 117.155924 
L 187.085127 117.679563 
L 182.04327 118.523053 
L 177.064691 119.683032 
L 172.169237 121.154875 
L 167.376421 122.932715 
L 162.70535 125.009465 
L 158.174644 127.376847 
L 153.802363 130.025423 
L 149.605937 132.944636 
L 145.602094 136.122849 
L 141.806794 139.547392 
L 138.235167 143.204614 
L 134.90145 147.079936 
L 131.818932 151.157911 
L 128.999901 155.422282 
L 126.455594 159.856051 
L 124.196155 164.441542 
L 122.230589 169.160477 
L 120.566733 173.994044 
L 119.211218 178.922977 
L 118.169448 183.927626 
L 117.445576 188.988041 
L 117.042487 194.084051 
L 116.961789 199.195341 
L 117.203803 204.301536 
L 117.767564 209.382281 
L 118.650825 214.417322 
L 119.850066 219.38659 
L 121.360504 224.270274 
L 123.17612 229.048907 
L 125.289676 233.70344 
L 127.692747 238.215319 
L 130.375753 242.566557 
L 133.327999 246.73981 
L 136.537716 250.718442 
L 139.99211 254.486592 
L 143.67741 258.02924 
L 147.578926 261.332265 
L 151.681106 264.382498 
L 155.967596 267.16778 
L 160.421309 269.67701 
L 165.024492 271.900184 
L 169.758795 273.82844 
L 174.605345 275.454092 
L 179.544824 276.770659 
L 184.55754 277.772893 
L 189.623512 278.456798 
L 194.722544 278.81965 
L 199.834312 278.86 
L 204.938437 278.577689 
L 210.014574 277.973841 
L 215.042487 277.050864 
L 220.002134 275.812437 
L 224.873743 274.263496 
L 229.637896 272.410217 
L 234.275601 270.259987 
L 238.768371 267.821378 
L 243.098296 265.104109 
L 247.248115 262.119015 
L 251.201288 258.877992 
L 254.942054 255.393963 
L 258.455502 251.680814 
L 261.727627 247.753347 
L 264.745385 243.627219 
L 267.496747 239.318877 
L 269.970743 234.845496 
L 272.157514 230.224909 
L 274.04834 225.475533 
L 275.635686 220.616301 
L 276.913222 215.666585 
L 277.875858 210.646114 
L 278.519755 205.574901 
L 278.842346 200.473163 
L 278.8827 197.9172 
L 278.8827 197.9172 
" clip-path="url(#pea70fced03)" style="fill: none; stroke-dasharray: 3.7,1.6; stroke-dashoffset: 0; stroke: #808080"/>
   </g>
   <g id="line2d_5">
    <path d="M 295.0758 197.9172 
L 294.882149 191.785945 
L 294.301967 185.679131 
L 293.337567 179.621102 
L 291.992793 173.636006 
L 290.273006 167.747703 
L 288.185063 161.979664 
L 285.737285 156.354882 
L 282.93943 150.89578 
L 279.802652 145.624119 
L 276.339454 140.560913 
L 272.563642 135.726347 
L 268.490268 131.139692 
L 264.135569 126.819231 
L 259.516904 122.782188 
L 254.652684 119.044655 
L 249.5623 115.621531 
L 244.266044 112.526461 
L 238.785027 109.771785 
L 233.1411 107.368481 
L 227.356759 105.326132 
L 221.455064 103.652877 
L 215.45954 102.355388 
L 209.394087 101.438837 
L 203.282884 100.906876 
L 197.150292 100.761627 
L 191.020756 101.003668 
L 184.918712 101.632036 
L 178.868484 102.644224 
L 172.89419 104.036198 
L 167.019644 105.80241 
L 161.268266 107.935818 
L 155.66298 110.427918 
L 150.226133 113.268776 
L 144.979396 116.447068 
L 139.943685 119.950123 
L 135.139073 123.763978 
L 130.584713 127.87343 
L 126.29876 132.262096 
L 122.298299 136.912484 
L 118.599278 141.806053 
L 115.216441 146.923299 
L 112.163273 152.243821 
L 109.451946 157.74641 
L 107.093267 163.409132 
L 105.096639 169.209413 
L 103.470021 175.124132 
L 102.219897 181.129711 
L 101.351251 187.20221 
L 100.867545 193.317421 
L 100.770707 199.450969 
L 101.061124 205.578403 
L 101.737637 211.675297 
L 102.79755 217.717347 
L 104.236639 223.680468 
L 106.049165 229.540889 
L 108.227904 235.275249 
L 110.764171 240.860688 
L 113.647856 246.274942 
L 116.867463 251.496428 
L 120.410158 256.504332 
L 124.261819 261.27869 
L 128.407092 265.800471 
L 132.829452 270.051649 
L 137.511272 274.015277 
L 142.433887 277.675557 
L 147.577675 281.017896 
L 152.922131 284.028972 
L 158.44595 286.696781 
L 164.127114 289.010688 
L 169.942974 290.96147 
L 175.870349 292.541351 
L 181.885608 293.744031 
L 187.964774 294.564718 
L 194.083613 295.00014 
L 200.217734 295.04856 
L 206.342685 294.709786 
L 212.434049 293.985169 
L 218.467544 292.877596 
L 224.41912 291.391484 
L 230.265052 289.532756 
L 235.982035 287.308821 
L 241.547281 284.728545 
L 246.938605 281.802213 
L 252.134515 278.541491 
L 257.114298 274.959377 
L 261.858105 271.070151 
L 266.347025 266.889315 
L 270.563163 262.433536 
L 274.489713 257.720576 
L 278.111022 252.769223 
L 281.412656 247.599213 
L 284.381452 242.231156 
L 287.005576 236.68645 
L 289.274568 230.987199 
L 291.179383 225.156122 
L 292.712427 219.216461 
L 293.867589 213.191896 
L 294.640265 207.106442 
L 295.027375 200.984356 
L 295.0758 197.9172 
L 295.0758 197.9172 
" clip-path="url(#pea70fced03)" style="fill: none; stroke-dasharray: 3.7,1.6; stroke-dashoffset: 0; stroke: #808080"/>
   </g>
   <g id="line2d_6">
    <path d="M 311.2689 197.9172 
L 311.212404 194.338851 
L 311.042973 190.764069 
L 310.760776 187.196418 
L 310.366094 183.639453 
L 309.859321 180.096721 
L 309.240961 176.571752 
L 308.511631 173.068062 
L 307.672058 169.589141 
L 306.72308 166.138458 
L 305.665641 162.719453 
L 304.500796 159.335534 
L 303.229706 155.990074 
L 301.853639 152.686408 
L 300.373965 149.427829 
L 298.792161 146.217585 
L 297.109802 143.058876 
L 295.328565 139.954852 
L 293.450227 136.908605 
L 291.47666 133.923174 
L 289.40983 131.001532 
L 287.251798 128.146594 
L 285.004716 125.361205 
L 282.670823 122.648141 
L 280.252446 120.010107 
L 277.751995 117.449732 
L 275.171964 114.96957 
L 272.514923 112.572091 
L 269.783521 110.259686 
L 266.980481 108.03466 
L 264.108598 105.89923 
L 261.170734 103.855527 
L 258.169817 101.905586 
L 255.108839 100.051351 
L 251.990851 98.294672 
L 248.818961 96.637298 
L 245.596332 95.080882 
L 242.326175 93.626976 
L 239.011749 92.277028 
L 235.656361 91.032385 
L 232.263352 89.894287 
L 228.836107 88.863869 
L 225.378041 87.942157 
L 221.892602 87.130071 
L 218.383263 86.42842 
L 214.853524 85.837903 
L 211.306902 85.359109 
L 207.746932 84.992516 
L 204.177165 84.738488 
L 200.601157 84.59728 
L 197.022473 84.569031 
L 193.444682 84.65377 
L 189.871349 84.851413 
L 186.306036 85.161762 
L 182.752298 85.584508 
L 179.213676 86.11923 
L 175.693698 86.765395 
L 172.195873 87.522358 
L 168.723688 88.389364 
L 165.280603 89.365551 
L 161.870052 90.449945 
L 158.495433 91.641464 
L 155.16011 92.938921 
L 151.867409 94.341022 
L 148.620611 95.846371 
L 145.422952 97.453466 
L 142.277622 99.160705 
L 139.187754 100.966387 
L 136.156429 102.868712 
L 133.186668 104.865783 
L 130.281432 106.95561 
L 127.443617 109.13611 
L 124.676052 111.405108 
L 121.981494 113.760343 
L 119.362632 116.199468 
L 116.822074 118.720051 
L 114.362353 121.319579 
L 111.985922 123.995462 
L 109.695149 126.745031 
L 107.492318 129.565546 
L 105.379624 132.454196 
L 103.359174 135.4081 
L 101.432981 138.424315 
L 99.602966 141.499834 
L 97.870952 144.631591 
L 96.238667 147.816464 
L 94.707737 151.051278 
L 93.279688 154.33281 
L 91.955945 157.657787 
L 90.737826 161.022896 
L 89.626546 164.424782 
L 88.623212 167.860054 
L 87.728825 171.325288 
L 86.944276 174.817029 
L 86.270347 178.331796 
L 85.70771 181.866087 
L 85.256926 185.416378 
L 84.918444 188.97913 
L 84.692602 192.550792 
L 84.579625 196.127803 
L 84.579625 199.706597 
L 84.692602 203.283608 
L 84.918444 206.85527 
L 85.256926 210.418022 
L 85.70771 213.968313 
L 86.270347 217.502604 
L 86.944276 221.017371 
L 87.728825 224.509112 
L 88.623212 227.974346 
L 89.626546 231.409618 
L 90.737826 234.811504 
L 91.955945 238.176613 
L 93.279688 241.50159 
L 94.707737 244.783122 
L 96.238667 248.017936 
L 97.870952 251.202809 
L 99.602966 254.334566 
L 101.432981 257.410085 
L 103.359174 260.4263 
L 105.379624 263.380204 
L 107.492318 266.268854 
L 109.695149 269.089369 
L 111.985922 271.838938 
L 114.362353 274.514821 
L 116.822074 277.114349 
L 119.362632 279.634932 
L 121.981494 282.074057 
L 124.676052 284.429292 
L 127.443617 286.69829 
L 130.281432 288.87879 
L 133.186668 290.968617 
L 136.156429 292.965688 
L 139.187754 294.868013 
L 142.277622 296.673695 
L 145.422952 298.380934 
L 148.620611 299.988029 
L 151.867409 301.493378 
L 155.16011 302.895479 
L 158.495433 304.192936 
L 161.870052 305.384455 
L 165.280603 306.468849 
L 168.723688 307.445036 
L 172.195873 308.312042 
L 175.693698 309.069005 
L 179.213676 309.71517 
L 182.752298 310.249892 
L 186.306036 310.672638 
L 189.871349 310.982987 
L 193.444682 311.18063 
L 197.022473 311.265369 
L 200.601157 311.23712 
L 204.177165 311.095912 
L 207.746932 310.841884 
L 211.306902 310.475291 
L 214.853524 309.996497 
L 218.383263 309.40598 
L 221.892602 308.704329 
L 225.378041 307.892243 
L 228.836107 306.970531 
L 232.263352 305.940113 
L 235.656361 304.802015 
L 239.011749 303.557372 
L 242.326175 302.207424 
L 245.596332 300.753518 
L 248.818961 299.197102 
L 251.990851 297.539728 
L 255.108839 295.783049 
L 258.169817 293.928814 
L 261.170734 291.978873 
L 264.108598 289.93517 
L 266.980481 287.79974 
L 269.783521 285.574714 
L 272.514923 283.262309 
L 275.171964 280.86483 
L 277.751995 278.384668 
L 280.252446 275.824293 
L 282.670823 273.186259 
L 285.004716 270.473195 
L 287.251798 267.687806 
L 289.40983 264.832868 
L 291.47666 261.911226 
L 293.450227 258.925795 
L 295.328565 255.879548 
L 297.109802 252.775524 
L 298.792161 249.616815 
L 300.373965 246.406571 
L 301.853639 243.147992 
L 303.229706 239.844326 
L 304.500796 236.498866 
L 305.665641 233.114947 
L 306.72308 229.695942 
L 307.672058 226.245259 
L 308.511631 222.766338 
L 309.240961 219.262648 
L 309.859321 215.737679 
L 310.366094 212.194947 
L 310.760776 208.637982 
L 311.042973 205.070331 
L 311.212404 201.495549 
L 311.2689 197.9172 
L 311.2689 197.9172 
" clip-path="url(#pea70fced03)" style="fill: none; stroke-dasharray: 3.7,1.6; stroke-dashoffset: 0; stroke: #808080"/>
   </g>
   <g id="line2d_7">
    <path d="M 197.9172 197.9172 
L 338.79717 197.9172 
" clip-path="url(#pea70fced03)" style="fill: none; stroke-dasharray: 3.7,1.6; stroke-dashoffset: 0; stroke: #808080; stroke-opacity: 0.6"/>
   </g>
   <g id="line2d_8">
    <path d="M 197.9172 197.9172 
L 305.837518 107.361301 
" clip-path="url(#pea70fced03)" style="fill: none; stroke-dasharray: 3.7,1.6; stroke-dashoffset: 0; stroke: #808080; stroke-opacity: 0.6"/>
   </g>
   <g id="line2d_9">
    <path d="M 197.9172 197.9172 
L 222.38075 59.177513 
" clip-path="url(#pea70fced03)" style="fill: none; stroke-dasharray: 3.7,1.6; stroke-dashoffset: 0; stroke: #808080; stroke-opacity: 0.6"/>
   </g>
   <g id="line2d_10">
    <path d="M 197.9172 197.9172 
L 127.477215 75.911567 
" clip-path="url(#pea70fced03)" style="fill: none; stroke-dasharray: 3.7,1.6; stroke-dashoffset: 0; stroke: #808080; stroke-opacity: 0.6"/>
   </g>
   <g id="line2d_11">
    <path d="M 197.9172 197.9172 
L 65.533332 149.733412 
" clip-path="url(#pea70fced03)" style="fill: none; stroke-dasharray: 3.7,1.6; stroke-dashoffset: 0; stroke: #808080; stroke-opacity: 0.6"/>
   </g>
   <g id="line2d_12">
    <path d="M 197.9172 197.9172 
L 65.533332 246.100988 
" clip-path="url(#pea70fced03)" style="fill: none; stroke-dasharray: 3.7,1.6; stroke-dashoffset: 0; stroke: #808080; stroke-opacity: 0.6"/>
   </g>
   <g id="line2d_13">
    <path d="M 197.9172 197.9172 
L 127.477215 319.922833 
" clip-path="url(#pea70fced03)" style="fill: none; stroke-dasharray: 3.7,1.6; stroke-dashoffset: 0; stroke: #808080; stroke-opacity: 0.6"/>
   </g>
   <g id="line2d_14">
    <path d="M 197.9172 197.9172 
L 222.38075 336.656887 
" clip-path="url(#pea70fced03)" style="fill: none; stroke-dasharray: 3.7,1.6; stroke-dashoffset: 0; stroke: #808080; stroke-opacity: 0.6"/>
   </g>
   <g id="line2d_15">
    <path d="M 197.9172 197.9172 
L 305.837518 288.473099 
" clip-path="url(#pea70fced03)" style="fill: none; stroke-dasharray: 3.7,1.6; stroke-dashoffset: 0; stroke: #808080; stroke-opacity: 0.6"/>
   </g>
   <g id="line2d_16">
    <path d="M 392.2344 197.9172 
L 392.114835 191.101563 
L 391.756286 184.294314 
L 391.159195 177.503829 
L 390.324296 170.738466 
L 389.252617 164.006549 
L 387.945477 157.316363 
L 386.404485 150.676141 
L 384.631536 144.094055 
L 382.628813 137.578205 
L 380.39878 131.13661 
L 377.944181 124.777196 
L 375.268038 118.507789 
L 372.373643 112.336106 
L 369.264559 106.26974 
L 365.944611 100.316157 
L 362.417885 94.482685 
L 358.688721 88.7765 
L 354.761708 83.204627 
L 350.64168 77.773921 
L 346.333706 72.491066 
L 341.843087 67.362563 
L 337.17535 62.394723 
L 332.33624 57.593659 
L 327.33171 52.965281 
L 322.167921 48.515284 
L 316.851226 44.249143 
L 311.388168 40.172109 
L 305.785471 36.2892 
L 300.050029 32.605193 
L 294.1889 29.124623 
L 288.209297 25.851772 
L 282.118579 22.790669 
L 275.924241 19.945079 
L 269.633907 17.318506 
L 263.255316 14.914181 
L 256.796318 12.735064 
L 250.264863 10.783835 
L 243.668988 9.062896 
L 237.016809 7.574365 
L 231.660028 6.552115 
L 231.660028 6.552115 
" clip-path="url(#pea70fced03)" style="fill: none; stroke: #000000; stroke-opacity: 0.7; stroke-width: 2; stroke-linecap: square"/>
   </g>
   <g id="line2d_17">
    <path d="M 100.7586 29.633568 
L 94.915868 33.144933 
L 89.199892 36.85907 
L 83.617705 40.771409 
L 78.176177 44.877134 
L 72.882006 49.171194 
L 67.741705 53.648303 
L 62.761601 58.302952 
L 57.947821 63.129414 
L 53.306291 68.121748 
L 48.842723 73.273811 
L 44.562608 78.579263 
L 40.471214 84.031574 
L 36.573577 89.624036 
L 32.874492 95.349765 
L 29.378512 101.201715 
L 26.08994 107.172686 
L 23.012821 113.255329 
L 20.150943 119.442158 
L 17.507828 125.72556 
L 15.318761 131.456803 
L 15.318761 131.456803 
" clip-path="url(#pea70fced03)" style="fill: none; stroke: #000000; stroke-opacity: 0.7; stroke-width: 2; stroke-linecap: square"/>
   </g>
   <g id="line2d_18">
    <path d="M 15.318761 264.377597 
L 17.762201 270.741306 
L 20.427343 277.015397 
L 23.310908 283.192149 
L 26.409346 289.263959 
L 29.718846 295.223356 
L 33.235334 301.063006 
L 36.954483 306.775723 
L 40.871716 312.354476 
L 44.982212 317.7924 
L 49.280913 323.082804 
L 53.762529 328.219176 
L 58.421544 333.195196 
L 63.252226 338.00474 
L 68.248629 342.64189 
L 73.404605 347.100939 
L 78.713808 351.376399 
L 84.169706 355.463009 
L 89.765584 359.35574 
L 95.494555 363.049801 
L 100.7586 366.200832 
L 100.7586 366.200832 
" clip-path="url(#pea70fced03)" style="fill: none; stroke: #000000; stroke-opacity: 0.7; stroke-width: 2; stroke-linecap: square"/>
   </g>
   <g id="line2d_19">
    <path d="M 231.660028 389.282285 
L 238.351357 387.981013 
L 244.992928 386.445845 
L 251.576566 384.67867 
L 258.09417 382.681662 
L 264.537719 380.45728 
L 270.899283 378.00826 
L 277.171034 375.337616 
L 283.345254 372.448635 
L 289.414345 369.344872 
L 295.370837 366.030147 
L 301.2074 362.508539 
L 306.916853 358.784381 
L 312.492168 354.862257 
L 317.926486 350.746993 
L 323.213117 346.443653 
L 328.345557 341.957534 
L 333.317489 337.294157 
L 338.122794 332.459259 
L 342.75556 327.45879 
L 346.772811 322.821889 
L 346.772811 322.821889 
" clip-path="url(#pea70fced03)" style="fill: none; stroke: #000000; stroke-opacity: 0.7; stroke-width: 2; stroke-linecap: square"/>
   </g>
   <g id="text_1">
    <!-- 46 -->
    <g style="fill: #808080" transform="translate(275.12132 194.922512)scale(0.14 -0.14)">
     <defs>
      <path id="TimesNewRomanPSMT-34" d="M 2978 1563 
L 2978 1119 
L 2409 1119 
L 2409 0 
L 1894 0 
L 1894 1119 
L 100 1119 
L 100 1519 
L 2066 4325 
L 2409 4325 
L 2409 1563 
L 2978 1563 
z
M 1894 1563 
L 1894 3666 
L 406 1563 
L 1894 1563 
z
" transform="scale(0.015625)"/>
      <path id="TimesNewRomanPSMT-36" d="M 2869 4325 
L 2869 4209 
Q 2456 4169 2195 4045 
Q 1934 3922 1679 3669 
Q 1425 3416 1258 3105 
Q 1091 2794 978 2366 
Q 1428 2675 1881 2675 
Q 2316 2675 2634 2325 
Q 2953 1975 2953 1425 
Q 2953 894 2631 456 
Q 2244 -75 1606 -75 
Q 1172 -75 869 213 
Q 275 772 275 1663 
Q 275 2231 503 2743 
Q 731 3256 1154 3653 
Q 1578 4050 1965 4187 
Q 2353 4325 2688 4325 
L 2869 4325 
z
M 925 2138 
Q 869 1716 869 1456 
Q 869 1156 980 804 
Q 1091 453 1309 247 
Q 1469 100 1697 100 
Q 1969 100 2183 356 
Q 2397 613 2397 1088 
Q 2397 1622 2184 2012 
Q 1972 2403 1581 2403 
Q 1463 2403 1327 2353 
Q 1191 2303 925 2138 
z
" transform="scale(0.015625)"/>
     </defs>
     <use xlink:href="#TimesNewRomanPSMT-34"/>
     <use xlink:href="#TimesNewRomanPSMT-36" x="50"/>
    </g>
   </g>
   <g id="text_2">
    <!-- 33 -->
    <g style="fill: #808080" transform="translate(255.421298 140.797147)scale(0.14 -0.14)">
     <defs>
      <path id="TimesNewRomanPSMT-33" d="M 325 3431 
Q 506 3859 782 4092 
Q 1059 4325 1472 4325 
Q 1981 4325 2253 3994 
Q 2459 3747 2459 3466 
Q 2459 3003 1878 2509 
Q 2269 2356 2469 2072 
Q 2669 1788 2669 1403 
Q 2669 853 2319 450 
Q 1863 -75 997 -75 
Q 569 -75 414 31 
Q 259 138 259 259 
Q 259 350 332 419 
Q 406 488 509 488 
Q 588 488 669 463 
Q 722 447 909 348 
Q 1097 250 1169 231 
Q 1284 197 1416 197 
Q 1734 197 1970 444 
Q 2206 691 2206 1028 
Q 2206 1275 2097 1509 
Q 2016 1684 1919 1775 
Q 1784 1900 1550 2001 
Q 1316 2103 1072 2103 
L 972 2103 
L 972 2197 
Q 1219 2228 1467 2375 
Q 1716 2522 1828 2728 
Q 1941 2934 1941 3181 
Q 1941 3503 1739 3701 
Q 1538 3900 1238 3900 
Q 753 3900 428 3381 
L 325 3431 
z
" transform="scale(0.015625)"/>
     </defs>
     <use xlink:href="#TimesNewRomanPSMT-33"/>
     <use xlink:href="#TimesNewRomanPSMT-33" x="50"/>
    </g>
   </g>
   <g id="text_3">
    <!-- 37 -->
    <g style="fill: #808080" transform="translate(205.539092 111.997642)scale(0.14 -0.14)">
     <defs>
      <path id="TimesNewRomanPSMT-37" d="M 644 4238 
L 2916 4238 
L 2916 4119 
L 1503 -88 
L 1153 -88 
L 2419 3728 
L 1253 3728 
Q 900 3728 750 3644 
Q 488 3500 328 3200 
L 238 3234 
L 644 4238 
z
" transform="scale(0.015625)"/>
     </defs>
     <use xlink:href="#TimesNewRomanPSMT-33"/>
     <use xlink:href="#TimesNewRomanPSMT-37" x="50"/>
    </g>
   </g>
   <g id="text_4">
    <!-- 50 -->
    <g style="fill: #808080" transform="translate(148.81514 121.999605)scale(0.14 -0.14)">
     <defs>
      <path id="TimesNewRomanPSMT-35" d="M 2778 4238 
L 2534 3706 
L 1259 3706 
L 981 3138 
Q 1809 3016 2294 2522 
Q 2709 2097 2709 1522 
Q 2709 1188 2573 903 
Q 2438 619 2231 419 
Q 2025 219 1772 97 
Q 1413 -75 1034 -75 
Q 653 -75 479 54 
Q 306 184 306 341 
Q 306 428 378 495 
Q 450 563 559 563 
Q 641 563 702 538 
Q 763 513 909 409 
Q 1144 247 1384 247 
Q 1750 247 2026 523 
Q 2303 800 2303 1197 
Q 2303 1581 2056 1914 
Q 1809 2247 1375 2428 
Q 1034 2569 447 2591 
L 1259 4238 
L 2778 4238 
z
" transform="scale(0.015625)"/>
      <path id="TimesNewRomanPSMT-30" d="M 231 2094 
Q 231 2819 450 3342 
Q 669 3866 1031 4122 
Q 1313 4325 1613 4325 
Q 2100 4325 2488 3828 
Q 2972 3213 2972 2159 
Q 2972 1422 2759 906 
Q 2547 391 2217 158 
Q 1888 -75 1581 -75 
Q 975 -75 572 641 
Q 231 1244 231 2094 
z
M 844 2016 
Q 844 1141 1059 588 
Q 1238 122 1591 122 
Q 1759 122 1940 273 
Q 2122 425 2216 781 
Q 2359 1319 2359 2297 
Q 2359 3022 2209 3506 
Q 2097 3866 1919 4016 
Q 1791 4119 1609 4119 
Q 1397 4119 1231 3928 
Q 1006 3669 925 3112 
Q 844 2556 844 2016 
z
" transform="scale(0.015625)"/>
     </defs>
     <use xlink:href="#TimesNewRomanPSMT-35"/>
     <use xlink:href="#TimesNewRomanPSMT-30" x="50"/>
    </g>
   </g>
   <g id="text_5">
    <!-- 19 -->
    <g style="fill: #808080" transform="translate(111.79121 166.123007)scale(0.14 -0.14)">
     <defs>
      <path id="TimesNewRomanPSMT-31" d="M 750 3822 
L 1781 4325 
L 1884 4325 
L 1884 747 
Q 1884 391 1914 303 
Q 1944 216 2037 169 
Q 2131 122 2419 116 
L 2419 0 
L 825 0 
L 825 116 
Q 1125 122 1212 167 
Q 1300 213 1334 289 
Q 1369 366 1369 747 
L 1369 3034 
Q 1369 3497 1338 3628 
Q 1316 3728 1258 3775 
Q 1200 3822 1119 3822 
Q 1003 3822 797 3725 
L 750 3822 
z
" transform="scale(0.015625)"/>
      <path id="TimesNewRomanPSMT-39" d="M 338 -88 
L 338 28 
Q 744 34 1094 217 
Q 1444 400 1770 856 
Q 2097 1313 2225 1859 
Q 1734 1544 1338 1544 
Q 891 1544 572 1889 
Q 253 2234 253 2806 
Q 253 3363 572 3797 
Q 956 4325 1575 4325 
Q 2097 4325 2469 3894 
Q 2925 3359 2925 2575 
Q 2925 1869 2578 1258 
Q 2231 647 1613 244 
Q 1109 -88 516 -88 
L 338 -88 
z
M 2275 2091 
Q 2331 2497 2331 2741 
Q 2331 3044 2228 3395 
Q 2125 3747 1936 3934 
Q 1747 4122 1506 4122 
Q 1228 4122 1018 3872 
Q 809 3622 809 3128 
Q 809 2469 1088 2097 
Q 1291 1828 1588 1828 
Q 1731 1828 1928 1897 
Q 2125 1966 2275 2091 
z
" transform="scale(0.015625)"/>
     </defs>
     <use xlink:href="#TimesNewRomanPSMT-31"/>
     <use xlink:href="#TimesNewRomanPSMT-39" x="50"/>
    </g>
   </g>
   <g id="text_6">
    <!-- 24 -->
    <g style="fill: #808080" transform="translate(111.79121 223.722018)scale(0.14 -0.14)">
     <defs>
      <path id="TimesNewRomanPSMT-32" d="M 2934 816 
L 2638 0 
L 138 0 
L 138 116 
Q 1241 1122 1691 1759 
Q 2141 2397 2141 2925 
Q 2141 3328 1894 3587 
Q 1647 3847 1303 3847 
Q 991 3847 742 3664 
Q 494 3481 375 3128 
L 259 3128 
Q 338 3706 661 4015 
Q 984 4325 1469 4325 
Q 1984 4325 2329 3994 
Q 2675 3663 2675 3213 
Q 2675 2891 2525 2569 
Q 2294 2063 1775 1497 
Q 997 647 803 472 
L 1909 472 
Q 2247 472 2383 497 
Q 2519 522 2628 598 
Q 2738 675 2819 816 
L 2934 816 
z
" transform="scale(0.015625)"/>
     </defs>
     <use xlink:href="#TimesNewRomanPSMT-32"/>
     <use xlink:href="#TimesNewRomanPSMT-34" x="50"/>
    </g>
   </g>
   <g id="text_7">
    <!-- 33 -->
    <g style="fill: #808080" transform="translate(148.81514 267.84542)scale(0.14 -0.14)">
     <use xlink:href="#TimesNewRomanPSMT-33"/>
     <use xlink:href="#TimesNewRomanPSMT-33" x="50"/>
    </g>
   </g>
   <g id="text_8">
    <!-- 49 -->
    <g style="fill: #808080" transform="translate(205.539092 277.847383)scale(0.14 -0.14)">
     <use xlink:href="#TimesNewRomanPSMT-34"/>
     <use xlink:href="#TimesNewRomanPSMT-39" x="50"/>
    </g>
   </g>
   <g id="text_9">
    <!-- 50 -->
    <g style="fill: #808080" transform="translate(255.421298 249.047878)scale(0.14 -0.14)">
     <use xlink:href="#TimesNewRomanPSMT-35"/>
     <use xlink:href="#TimesNewRomanPSMT-30" x="50"/>
    </g>
   </g>
   <g id="text_10">
    <!-- 56 -->
    <g style="fill: #808080" transform="translate(291.31442 194.922512)scale(0.14 -0.14)">
     <use xlink:href="#TimesNewRomanPSMT-35"/>
     <use xlink:href="#TimesNewRomanPSMT-36" x="50"/>
    </g>
   </g>
   <g id="text_11">
    <!-- 39 -->
    <g style="fill: #808080" transform="translate(267.825932 130.388423)scale(0.14 -0.14)">
     <use xlink:href="#TimesNewRomanPSMT-33"/>
     <use xlink:href="#TimesNewRomanPSMT-39" x="50"/>
    </g>
   </g>
   <g id="text_12">
    <!-- 45 -->
    <g style="fill: #808080" transform="translate(208.350994 96.050552)scale(0.14 -0.14)">
     <use xlink:href="#TimesNewRomanPSMT-34"/>
     <use xlink:href="#TimesNewRomanPSMT-35" x="50"/>
    </g>
   </g>
   <g id="text_13">
    <!-- 60 -->
    <g style="fill: #808080" transform="translate(140.71859 107.97597)scale(0.14 -0.14)">
     <use xlink:href="#TimesNewRomanPSMT-36"/>
     <use xlink:href="#TimesNewRomanPSMT-30" x="50"/>
    </g>
   </g>
   <g id="text_14">
    <!-- 23 -->
    <g style="fill: #808080" transform="translate(96.574673 160.584641)scale(0.14 -0.14)">
     <use xlink:href="#TimesNewRomanPSMT-32"/>
     <use xlink:href="#TimesNewRomanPSMT-33" x="50"/>
    </g>
   </g>
   <g id="text_15">
    <!-- 29 -->
    <g style="fill: #808080" transform="translate(96.574673 229.260384)scale(0.14 -0.14)">
     <use xlink:href="#TimesNewRomanPSMT-32"/>
     <use xlink:href="#TimesNewRomanPSMT-39" x="50"/>
    </g>
   </g>
   <g id="text_16">
    <!-- 40 -->
    <g style="fill: #808080" transform="translate(140.71859 281.869055)scale(0.14 -0.14)">
     <use xlink:href="#TimesNewRomanPSMT-34"/>
     <use xlink:href="#TimesNewRomanPSMT-30" x="50"/>
    </g>
   </g>
   <g id="text_17">
    <!-- 59 -->
    <g style="fill: #808080" transform="translate(208.350994 293.794473)scale(0.14 -0.14)">
     <use xlink:href="#TimesNewRomanPSMT-35"/>
     <use xlink:href="#TimesNewRomanPSMT-39" x="50"/>
    </g>
   </g>
   <g id="text_18">
    <!-- 60 -->
    <g style="fill: #808080" transform="translate(267.825932 259.456602)scale(0.14 -0.14)">
     <use xlink:href="#TimesNewRomanPSMT-36"/>
     <use xlink:href="#TimesNewRomanPSMT-30" x="50"/>
    </g>
   </g>
   <g id="text_19">
    <!-- 65 -->
    <g style="fill: #808080" transform="translate(307.50752 194.922512)scale(0.14 -0.14)">
     <use xlink:href="#TimesNewRomanPSMT-36"/>
     <use xlink:href="#TimesNewRomanPSMT-35" x="50"/>
    </g>
   </g>
   <g id="text_20">
    <!-- 46 -->
    <g style="fill: #808080" transform="translate(280.230567 119.979699)scale(0.14 -0.14)">
     <use xlink:href="#TimesNewRomanPSMT-34"/>
     <use xlink:href="#TimesNewRomanPSMT-36" x="50"/>
    </g>
   </g>
   <g id="text_21">
    <!-- 52 -->
    <g style="fill: #808080" transform="translate(211.162897 80.103461)scale(0.14 -0.14)">
     <use xlink:href="#TimesNewRomanPSMT-35"/>
     <use xlink:href="#TimesNewRomanPSMT-32" x="50"/>
    </g>
   </g>
   <g id="text_22">
    <!-- 70 -->
    <g style="fill: #808080" transform="translate(132.62204 93.952334)scale(0.14 -0.14)">
     <use xlink:href="#TimesNewRomanPSMT-37"/>
     <use xlink:href="#TimesNewRomanPSMT-30" x="50"/>
    </g>
   </g>
   <g id="text_23">
    <!-- 27 -->
    <g style="fill: #808080" transform="translate(81.358137 155.046275)scale(0.14 -0.14)">
     <use xlink:href="#TimesNewRomanPSMT-32"/>
     <use xlink:href="#TimesNewRomanPSMT-37" x="50"/>
    </g>
   </g>
   <g id="text_24">
    <!-- 34 -->
    <g style="fill: #808080" transform="translate(81.358137 234.79875)scale(0.14 -0.14)">
     <use xlink:href="#TimesNewRomanPSMT-33"/>
     <use xlink:href="#TimesNewRomanPSMT-34" x="50"/>
    </g>
   </g>
   <g id="text_25">
    <!-- 47 -->
    <g style="fill: #808080" transform="translate(132.62204 295.892691)scale(0.14 -0.14)">
     <use xlink:href="#TimesNewRomanPSMT-34"/>
     <use xlink:href="#TimesNewRomanPSMT-37" x="50"/>
    </g>
   </g>
   <g id="text_26">
    <!-- 69 -->
    <g style="fill: #808080" transform="translate(211.162897 309.741564)scale(0.14 -0.14)">
     <use xlink:href="#TimesNewRomanPSMT-36"/>
     <use xlink:href="#TimesNewRomanPSMT-39" x="50"/>
    </g>
   </g>
   <g id="text_27">
    <!-- 70 -->
    <g style="fill: #808080" transform="translate(280.230567 269.865326)scale(0.14 -0.14)">
     <use xlink:href="#TimesNewRomanPSMT-37"/>
     <use xlink:href="#TimesNewRomanPSMT-30" x="50"/>
    </g>
   </g>
   <g id="text_28">
    <!-- MMLU -->
    <g transform="translate(329.971806 201.280481)scale(0.14 -0.14)">
     <defs>
      <path id="TimesNewRomanPSMT-4d" d="M 2619 0 
L 981 3566 
L 981 734 
Q 981 344 1066 247 
Q 1181 116 1431 116 
L 1581 116 
L 1581 0 
L 106 0 
L 106 116 
L 256 116 
Q 525 116 638 278 
Q 706 378 706 734 
L 706 3503 
Q 706 3784 644 3909 
Q 600 4000 483 4061 
Q 366 4122 106 4122 
L 106 4238 
L 1306 4238 
L 2844 922 
L 4356 4238 
L 5556 4238 
L 5556 4122 
L 5409 4122 
Q 5138 4122 5025 3959 
Q 4956 3859 4956 3503 
L 4956 734 
Q 4956 344 5044 247 
Q 5159 116 5409 116 
L 5556 116 
L 5556 0 
L 3756 0 
L 3756 116 
L 3906 116 
Q 4178 116 4288 278 
Q 4356 378 4356 734 
L 4356 3566 
L 2722 0 
L 2619 0 
z
" transform="scale(0.015625)"/>
      <path id="TimesNewRomanPSMT-4c" d="M 3669 1172 
L 3772 1150 
L 3409 0 
L 128 0 
L 128 116 
L 288 116 
Q 556 116 672 291 
Q 738 391 738 753 
L 738 3488 
Q 738 3884 650 3984 
Q 528 4122 288 4122 
L 128 4122 
L 128 4238 
L 2047 4238 
L 2047 4122 
Q 1709 4125 1573 4059 
Q 1438 3994 1388 3894 
Q 1338 3794 1338 3416 
L 1338 753 
Q 1338 494 1388 397 
Q 1425 331 1503 300 
Q 1581 269 1991 269 
L 2300 269 
Q 2788 269 2984 341 
Q 3181 413 3343 595 
Q 3506 778 3669 1172 
z
" transform="scale(0.015625)"/>
      <path id="TimesNewRomanPSMT-55" d="M 3053 4122 
L 3053 4238 
L 4553 4238 
L 4553 4122 
L 4394 4122 
Q 4144 4122 4009 3913 
Q 3944 3816 3944 3463 
L 3944 1744 
Q 3944 1106 3817 754 
Q 3691 403 3320 151 
Q 2950 -100 2313 -100 
Q 1619 -100 1259 140 
Q 900 381 750 788 
Q 650 1066 650 1831 
L 650 3488 
Q 650 3878 542 4000 
Q 434 4122 194 4122 
L 34 4122 
L 34 4238 
L 1866 4238 
L 1866 4122 
L 1703 4122 
Q 1441 4122 1328 3956 
Q 1250 3844 1250 3488 
L 1250 1641 
Q 1250 1394 1295 1075 
Q 1341 756 1459 578 
Q 1578 400 1801 284 
Q 2025 169 2350 169 
Q 2766 169 3094 350 
Q 3422 531 3542 814 
Q 3663 1097 3663 1772 
L 3663 3488 
Q 3663 3884 3575 3984 
Q 3453 4122 3213 4122 
L 3053 4122 
z
" transform="scale(0.015625)"/>
     </defs>
     <use xlink:href="#TimesNewRomanPSMT-4d"/>
     <use xlink:href="#TimesNewRomanPSMT-4d" x="88.916016"/>
     <use xlink:href="#TimesNewRomanPSMT-4c" x="177.832031"/>
     <use xlink:href="#TimesNewRomanPSMT-55" x="238.916016"/>
    </g>
   </g>
   <g id="text_29">
    <!-- TruthfulQA -->
    <g transform="translate(282.569194 102.397603)scale(0.14 -0.14)">
     <defs>
      <path id="TimesNewRomanPSMT-54" d="M 3703 4238 
L 3750 3244 
L 3631 3244 
Q 3597 3506 3538 3619 
Q 3441 3800 3280 3886 
Q 3119 3972 2856 3972 
L 2259 3972 
L 2259 734 
Q 2259 344 2344 247 
Q 2463 116 2709 116 
L 2856 116 
L 2856 0 
L 1059 0 
L 1059 116 
L 1209 116 
Q 1478 116 1591 278 
Q 1659 378 1659 734 
L 1659 3972 
L 1150 3972 
Q 853 3972 728 3928 
Q 566 3869 450 3700 
Q 334 3531 313 3244 
L 194 3244 
L 244 4238 
L 3703 4238 
z
" transform="scale(0.015625)"/>
      <path id="TimesNewRomanPSMT-72" d="M 1038 2947 
L 1038 2303 
Q 1397 2947 1775 2947 
Q 1947 2947 2059 2842 
Q 2172 2738 2172 2600 
Q 2172 2478 2090 2393 
Q 2009 2309 1897 2309 
Q 1788 2309 1652 2417 
Q 1516 2525 1450 2525 
Q 1394 2525 1328 2463 
Q 1188 2334 1038 2041 
L 1038 669 
Q 1038 431 1097 309 
Q 1138 225 1241 169 
Q 1344 113 1538 113 
L 1538 0 
L 72 0 
L 72 113 
Q 291 113 397 181 
Q 475 231 506 341 
Q 522 394 522 644 
L 522 1753 
Q 522 2253 501 2348 
Q 481 2444 426 2487 
Q 372 2531 291 2531 
Q 194 2531 72 2484 
L 41 2597 
L 906 2947 
L 1038 2947 
z
" transform="scale(0.015625)"/>
      <path id="TimesNewRomanPSMT-75" d="M 2709 2863 
L 2709 1128 
Q 2709 631 2732 520 
Q 2756 409 2807 365 
Q 2859 322 2928 322 
Q 3025 322 3147 375 
L 3191 266 
L 2334 -88 
L 2194 -88 
L 2194 519 
Q 1825 119 1631 15 
Q 1438 -88 1222 -88 
Q 981 -88 804 51 
Q 628 191 559 409 
Q 491 628 491 1028 
L 491 2306 
Q 491 2509 447 2587 
Q 403 2666 317 2708 
Q 231 2750 6 2747 
L 6 2863 
L 1009 2863 
L 1009 947 
Q 1009 547 1148 422 
Q 1288 297 1484 297 
Q 1619 297 1789 381 
Q 1959 466 2194 703 
L 2194 2325 
Q 2194 2569 2105 2655 
Q 2016 2741 1734 2747 
L 1734 2863 
L 2709 2863 
z
" transform="scale(0.015625)"/>
      <path id="TimesNewRomanPSMT-74" d="M 1031 3803 
L 1031 2863 
L 1700 2863 
L 1700 2644 
L 1031 2644 
L 1031 788 
Q 1031 509 1111 412 
Q 1191 316 1316 316 
Q 1419 316 1516 380 
Q 1613 444 1666 569 
L 1788 569 
Q 1678 263 1478 108 
Q 1278 -47 1066 -47 
Q 922 -47 784 33 
Q 647 113 581 261 
Q 516 409 516 719 
L 516 2644 
L 63 2644 
L 63 2747 
Q 234 2816 414 2980 
Q 594 3144 734 3369 
Q 806 3488 934 3803 
L 1031 3803 
z
" transform="scale(0.015625)"/>
      <path id="TimesNewRomanPSMT-68" d="M 1041 4444 
L 1041 2350 
Q 1388 2731 1591 2839 
Q 1794 2947 1997 2947 
Q 2241 2947 2416 2812 
Q 2591 2678 2675 2391 
Q 2734 2191 2734 1659 
L 2734 647 
Q 2734 375 2778 275 
Q 2809 200 2884 156 
Q 2959 113 3159 113 
L 3159 0 
L 1753 0 
L 1753 113 
L 1819 113 
Q 2019 113 2097 173 
Q 2175 234 2206 353 
Q 2216 403 2216 647 
L 2216 1659 
Q 2216 2128 2167 2275 
Q 2119 2422 2012 2495 
Q 1906 2569 1756 2569 
Q 1603 2569 1437 2487 
Q 1272 2406 1041 2159 
L 1041 647 
Q 1041 353 1073 281 
Q 1106 209 1195 161 
Q 1284 113 1503 113 
L 1503 0 
L 84 0 
L 84 113 
Q 275 113 384 172 
Q 447 203 484 290 
Q 522 378 522 647 
L 522 3238 
Q 522 3728 498 3840 
Q 475 3953 426 3993 
Q 378 4034 297 4034 
Q 231 4034 84 3984 
L 41 4094 
L 897 4444 
L 1041 4444 
z
" transform="scale(0.015625)"/>
      <path id="TimesNewRomanPSMT-66" d="M 1319 2638 
L 1319 756 
Q 1319 356 1406 250 
Q 1522 113 1716 113 
L 1975 113 
L 1975 0 
L 266 0 
L 266 113 
L 394 113 
Q 519 113 622 175 
Q 725 238 764 344 
Q 803 450 803 756 
L 803 2638 
L 247 2638 
L 247 2863 
L 803 2863 
L 803 3050 
Q 803 3478 940 3775 
Q 1078 4072 1361 4255 
Q 1644 4438 1997 4438 
Q 2325 4438 2600 4225 
Q 2781 4084 2781 3909 
Q 2781 3816 2700 3733 
Q 2619 3650 2525 3650 
Q 2453 3650 2373 3701 
Q 2294 3753 2178 3923 
Q 2063 4094 1966 4153 
Q 1869 4213 1750 4213 
Q 1606 4213 1506 4136 
Q 1406 4059 1362 3898 
Q 1319 3738 1319 3069 
L 1319 2863 
L 2056 2863 
L 2056 2638 
L 1319 2638 
z
" transform="scale(0.015625)"/>
      <path id="TimesNewRomanPSMT-6c" d="M 1184 4444 
L 1184 647 
Q 1184 378 1223 290 
Q 1263 203 1344 158 
Q 1425 113 1647 113 
L 1647 0 
L 244 0 
L 244 113 
Q 441 113 512 153 
Q 584 194 625 287 
Q 666 381 666 647 
L 666 3247 
Q 666 3731 644 3842 
Q 622 3953 573 3993 
Q 525 4034 450 4034 
Q 369 4034 244 3984 
L 191 4094 
L 1044 4444 
L 1184 4444 
z
" transform="scale(0.015625)"/>
      <path id="TimesNewRomanPSMT-51" d="M 2819 -47 
Q 3138 -597 3508 -856 
Q 3878 -1116 4350 -1153 
L 4350 -1253 
Q 3919 -1238 3428 -1080 
Q 2938 -922 2498 -642 
Q 2059 -363 1741 -47 
Q 1291 134 1028 338 
Q 647 641 436 1083 
Q 225 1525 225 2128 
Q 225 3078 840 3706 
Q 1456 4334 2331 4334 
Q 3163 4334 3770 3704 
Q 4378 3075 4378 2116 
Q 4378 1338 3945 750 
Q 3513 163 2819 -47 
z
M 2294 4094 
Q 1725 4094 1378 3688 
Q 941 3178 941 2128 
Q 941 1100 1384 544 
Q 1728 116 2294 116 
Q 2881 116 3241 544 
Q 3663 1050 3663 2038 
Q 3663 2797 3431 3316 
Q 3253 3716 2958 3905 
Q 2663 4094 2294 4094 
z
" transform="scale(0.015625)"/>
      <path id="TimesNewRomanPSMT-41" d="M 2928 1419 
L 1288 1419 
L 1000 750 
Q 894 503 894 381 
Q 894 284 986 211 
Q 1078 138 1384 116 
L 1384 0 
L 50 0 
L 50 116 
Q 316 163 394 238 
Q 553 388 747 847 
L 2238 4334 
L 2347 4334 
L 3822 809 
Q 4000 384 4145 257 
Q 4291 131 4550 116 
L 4550 0 
L 2878 0 
L 2878 116 
Q 3131 128 3220 200 
Q 3309 272 3309 375 
Q 3309 513 3184 809 
L 2928 1419 
z
M 2841 1650 
L 2122 3363 
L 1384 1650 
L 2841 1650 
z
" transform="scale(0.015625)"/>
     </defs>
     <use xlink:href="#TimesNewRomanPSMT-54"/>
     <use xlink:href="#TimesNewRomanPSMT-72" x="57.583984"/>
     <use xlink:href="#TimesNewRomanPSMT-75" x="90.884766"/>
     <use xlink:href="#TimesNewRomanPSMT-74" x="140.884766"/>
     <use xlink:href="#TimesNewRomanPSMT-68" x="168.667969"/>
     <use xlink:href="#TimesNewRomanPSMT-66" x="218.667969"/>
     <use xlink:href="#TimesNewRomanPSMT-75" x="251.96875"/>
     <use xlink:href="#TimesNewRomanPSMT-6c" x="301.96875"/>
     <use xlink:href="#TimesNewRomanPSMT-51" x="329.751953"/>
     <use xlink:href="#TimesNewRomanPSMT-41" x="401.96875"/>
    </g>
   </g>
   <g id="text_30">
    <!-- ARC-C -->
    <g transform="translate(203.236522 49.783122)scale(0.14 -0.14)">
     <defs>
      <path id="TimesNewRomanPSMT-52" d="M 4325 0 
L 3194 0 
L 1759 1981 
Q 1600 1975 1500 1975 
Q 1459 1975 1412 1976 
Q 1366 1978 1316 1981 
L 1316 750 
Q 1316 350 1403 253 
Q 1522 116 1759 116 
L 1925 116 
L 1925 0 
L 109 0 
L 109 116 
L 269 116 
Q 538 116 653 291 
Q 719 388 719 750 
L 719 3488 
Q 719 3888 631 3984 
Q 509 4122 269 4122 
L 109 4122 
L 109 4238 
L 1653 4238 
Q 2328 4238 2648 4139 
Q 2969 4041 3192 3777 
Q 3416 3513 3416 3147 
Q 3416 2756 3161 2468 
Q 2906 2181 2372 2063 
L 3247 847 
Q 3547 428 3762 290 
Q 3978 153 4325 116 
L 4325 0 
z
M 1316 2178 
Q 1375 2178 1419 2176 
Q 1463 2175 1491 2175 
Q 2097 2175 2405 2437 
Q 2713 2700 2713 3106 
Q 2713 3503 2464 3751 
Q 2216 4000 1806 4000 
Q 1625 4000 1316 3941 
L 1316 2178 
z
" transform="scale(0.015625)"/>
      <path id="TimesNewRomanPSMT-43" d="M 3853 4334 
L 3950 2894 
L 3853 2894 
Q 3659 3541 3300 3825 
Q 2941 4109 2438 4109 
Q 2016 4109 1675 3895 
Q 1334 3681 1139 3212 
Q 944 2744 944 2047 
Q 944 1472 1128 1050 
Q 1313 628 1683 403 
Q 2053 178 2528 178 
Q 2941 178 3256 354 
Q 3572 531 3950 1056 
L 4047 994 
Q 3728 428 3303 165 
Q 2878 -97 2294 -97 
Q 1241 -97 663 684 
Q 231 1266 231 2053 
Q 231 2688 515 3219 
Q 800 3750 1298 4042 
Q 1797 4334 2388 4334 
Q 2847 4334 3294 4109 
Q 3425 4041 3481 4041 
Q 3566 4041 3628 4100 
Q 3709 4184 3744 4334 
L 3853 4334 
z
" transform="scale(0.015625)"/>
      <path id="TimesNewRomanPSMT-2d" d="M 259 1672 
L 1875 1672 
L 1875 1200 
L 259 1200 
L 259 1672 
z
" transform="scale(0.015625)"/>
     </defs>
     <use xlink:href="#TimesNewRomanPSMT-41"/>
     <use xlink:href="#TimesNewRomanPSMT-52" x="72.216797"/>
     <use xlink:href="#TimesNewRomanPSMT-43" x="138.916016"/>
     <use xlink:href="#TimesNewRomanPSMT-2d" x="205.615234"/>
     <use xlink:href="#TimesNewRomanPSMT-43" x="238.916016"/>
    </g>
   </g>
   <g id="text_31">
    <!-- GSM8K -->
    <g transform="translate(97.272163 68.05594)scale(0.14 -0.14)">
     <defs>
      <path id="TimesNewRomanPSMT-47" d="M 3928 4334 
L 4038 2997 
L 3928 2997 
Q 3763 3497 3500 3750 
Q 3122 4116 2528 4116 
Q 1719 4116 1297 3475 
Q 944 2934 944 2188 
Q 944 1581 1178 1081 
Q 1413 581 1792 348 
Q 2172 116 2572 116 
Q 2806 116 3025 175 
Q 3244 234 3447 350 
L 3447 1575 
Q 3447 1894 3398 1992 
Q 3350 2091 3248 2142 
Q 3147 2194 2891 2194 
L 2891 2313 
L 4531 2313 
L 4531 2194 
L 4453 2194 
Q 4209 2194 4119 2031 
Q 4056 1916 4056 1575 
L 4056 278 
Q 3697 84 3347 -6 
Q 2997 -97 2569 -97 
Q 1341 -97 703 691 
Q 225 1281 225 2053 
Q 225 2613 494 3125 
Q 813 3734 1369 4063 
Q 1834 4334 2469 4334 
Q 2700 4334 2889 4296 
Q 3078 4259 3425 4131 
Q 3600 4066 3659 4066 
Q 3719 4066 3761 4120 
Q 3803 4175 3813 4334 
L 3928 4334 
z
" transform="scale(0.015625)"/>
      <path id="TimesNewRomanPSMT-53" d="M 2934 4334 
L 2934 2869 
L 2819 2869 
Q 2763 3291 2617 3541 
Q 2472 3791 2203 3937 
Q 1934 4084 1647 4084 
Q 1322 4084 1109 3886 
Q 897 3688 897 3434 
Q 897 3241 1031 3081 
Q 1225 2847 1953 2456 
Q 2547 2138 2764 1967 
Q 2981 1797 3098 1565 
Q 3216 1334 3216 1081 
Q 3216 600 2842 251 
Q 2469 -97 1881 -97 
Q 1697 -97 1534 -69 
Q 1438 -53 1133 45 
Q 828 144 747 144 
Q 669 144 623 97 
Q 578 50 556 -97 
L 441 -97 
L 441 1356 
L 556 1356 
Q 638 900 775 673 
Q 913 447 1195 297 
Q 1478 147 1816 147 
Q 2206 147 2432 353 
Q 2659 559 2659 841 
Q 2659 997 2573 1156 
Q 2488 1316 2306 1453 
Q 2184 1547 1640 1851 
Q 1097 2156 867 2337 
Q 638 2519 519 2737 
Q 400 2956 400 3219 
Q 400 3675 750 4004 
Q 1100 4334 1641 4334 
Q 1978 4334 2356 4169 
Q 2531 4091 2603 4091 
Q 2684 4091 2736 4139 
Q 2788 4188 2819 4334 
L 2934 4334 
z
" transform="scale(0.015625)"/>
      <path id="TimesNewRomanPSMT-38" d="M 1228 2134 
Q 725 2547 579 2797 
Q 434 3047 434 3316 
Q 434 3728 753 4026 
Q 1072 4325 1600 4325 
Q 2113 4325 2425 4047 
Q 2738 3769 2738 3413 
Q 2738 3175 2569 2928 
Q 2400 2681 1866 2347 
Q 2416 1922 2594 1678 
Q 2831 1359 2831 1006 
Q 2831 559 2490 242 
Q 2150 -75 1597 -75 
Q 994 -75 656 303 
Q 388 606 388 966 
Q 388 1247 577 1523 
Q 766 1800 1228 2134 
z
M 1719 2469 
Q 2094 2806 2194 3001 
Q 2294 3197 2294 3444 
Q 2294 3772 2109 3958 
Q 1925 4144 1606 4144 
Q 1288 4144 1088 3959 
Q 888 3775 888 3528 
Q 888 3366 970 3203 
Q 1053 3041 1206 2894 
L 1719 2469 
z
M 1375 2016 
Q 1116 1797 991 1539 
Q 866 1281 866 981 
Q 866 578 1086 336 
Q 1306 94 1647 94 
Q 1984 94 2187 284 
Q 2391 475 2391 747 
Q 2391 972 2272 1150 
Q 2050 1481 1375 2016 
z
" transform="scale(0.015625)"/>
      <path id="TimesNewRomanPSMT-4b" d="M 1913 2350 
L 3475 797 
Q 3859 413 4131 273 
Q 4403 134 4675 116 
L 4675 0 
L 2659 0 
L 2659 116 
Q 2841 116 2920 177 
Q 3000 238 3000 313 
Q 3000 388 2970 447 
Q 2941 506 2775 669 
L 1313 2116 
L 1313 750 
Q 1313 428 1353 325 
Q 1384 247 1484 191 
Q 1619 116 1769 116 
L 1913 116 
L 1913 0 
L 106 0 
L 106 116 
L 256 116 
Q 519 116 638 269 
Q 713 369 713 750 
L 713 3488 
Q 713 3809 672 3916 
Q 641 3991 544 4047 
Q 406 4122 256 4122 
L 106 4122 
L 106 4238 
L 1913 4238 
L 1913 4122 
L 1769 4122 
Q 1622 4122 1484 4050 
Q 1388 4000 1350 3900 
Q 1313 3800 1313 3488 
L 1313 2191 
Q 1375 2250 1741 2588 
Q 2669 3438 2863 3722 
Q 2947 3847 2947 3941 
Q 2947 4013 2881 4067 
Q 2816 4122 2659 4122 
L 2563 4122 
L 2563 4238 
L 4119 4238 
L 4119 4122 
Q 3981 4119 3868 4084 
Q 3756 4050 3593 3951 
Q 3431 3853 3194 3634 
Q 3125 3572 2559 2994 
L 1913 2350 
z
" transform="scale(0.015625)"/>
     </defs>
     <use xlink:href="#TimesNewRomanPSMT-47"/>
     <use xlink:href="#TimesNewRomanPSMT-53" x="72.216797"/>
     <use xlink:href="#TimesNewRomanPSMT-4d" x="127.832031"/>
     <use xlink:href="#TimesNewRomanPSMT-38" x="216.748047"/>
     <use xlink:href="#TimesNewRomanPSMT-4b" x="266.748047"/>
    </g>
   </g>
   <g id="text_32">
    <!-- Math -->
    <g transform="translate(38.58354 148.666001)scale(0.14 -0.14)">
     <defs>
      <path id="TimesNewRomanPSMT-61" d="M 1822 413 
Q 1381 72 1269 19 
Q 1100 -59 909 -59 
Q 613 -59 420 144 
Q 228 347 228 678 
Q 228 888 322 1041 
Q 450 1253 767 1440 
Q 1084 1628 1822 1897 
L 1822 2009 
Q 1822 2438 1686 2597 
Q 1550 2756 1291 2756 
Q 1094 2756 978 2650 
Q 859 2544 859 2406 
L 866 2225 
Q 866 2081 792 2003 
Q 719 1925 600 1925 
Q 484 1925 411 2006 
Q 338 2088 338 2228 
Q 338 2497 613 2722 
Q 888 2947 1384 2947 
Q 1766 2947 2009 2819 
Q 2194 2722 2281 2516 
Q 2338 2381 2338 1966 
L 2338 994 
Q 2338 584 2353 492 
Q 2369 400 2405 369 
Q 2441 338 2488 338 
Q 2538 338 2575 359 
Q 2641 400 2828 588 
L 2828 413 
Q 2478 -56 2159 -56 
Q 2006 -56 1915 50 
Q 1825 156 1822 413 
z
M 1822 616 
L 1822 1706 
Q 1350 1519 1213 1441 
Q 966 1303 859 1153 
Q 753 1003 753 825 
Q 753 600 887 451 
Q 1022 303 1197 303 
Q 1434 303 1822 616 
z
" transform="scale(0.015625)"/>
     </defs>
     <use xlink:href="#TimesNewRomanPSMT-4d"/>
     <use xlink:href="#TimesNewRomanPSMT-61" x="88.916016"/>
     <use xlink:href="#TimesNewRomanPSMT-74" x="133.300781"/>
     <use xlink:href="#TimesNewRomanPSMT-68" x="161.083984"/>
    </g>
   </g>
   <g id="text_33">
    <!-- HumanEval -->
    <g transform="translate(19.925259 253.894962)scale(0.14 -0.14)">
     <defs>
      <path id="TimesNewRomanPSMT-48" d="M 1316 2272 
L 3284 2272 
L 3284 3484 
Q 3284 3809 3244 3913 
Q 3213 3991 3113 4047 
Q 2978 4122 2828 4122 
L 2678 4122 
L 2678 4238 
L 4491 4238 
L 4491 4122 
L 4341 4122 
Q 4191 4122 4056 4050 
Q 3956 4000 3920 3898 
Q 3884 3797 3884 3484 
L 3884 750 
Q 3884 428 3925 325 
Q 3956 247 4053 191 
Q 4191 116 4341 116 
L 4491 116 
L 4491 0 
L 2678 0 
L 2678 116 
L 2828 116 
Q 3088 116 3206 269 
Q 3284 369 3284 750 
L 3284 2041 
L 1316 2041 
L 1316 750 
Q 1316 428 1356 325 
Q 1388 247 1488 191 
Q 1622 116 1772 116 
L 1925 116 
L 1925 0 
L 109 0 
L 109 116 
L 259 116 
Q 522 116 641 269 
Q 716 369 716 750 
L 716 3484 
Q 716 3809 675 3913 
Q 644 3991 547 4047 
Q 409 4122 259 4122 
L 109 4122 
L 109 4238 
L 1925 4238 
L 1925 4122 
L 1772 4122 
Q 1622 4122 1488 4050 
Q 1391 4000 1353 3898 
Q 1316 3797 1316 3484 
L 1316 2272 
z
" transform="scale(0.015625)"/>
      <path id="TimesNewRomanPSMT-6d" d="M 1050 2338 
Q 1363 2650 1419 2697 
Q 1559 2816 1721 2881 
Q 1884 2947 2044 2947 
Q 2313 2947 2506 2790 
Q 2700 2634 2766 2338 
Q 3088 2713 3309 2830 
Q 3531 2947 3766 2947 
Q 3994 2947 4170 2830 
Q 4347 2713 4450 2447 
Q 4519 2266 4519 1878 
L 4519 647 
Q 4519 378 4559 278 
Q 4591 209 4675 161 
Q 4759 113 4950 113 
L 4950 0 
L 3538 0 
L 3538 113 
L 3597 113 
Q 3781 113 3884 184 
Q 3956 234 3988 344 
Q 4000 397 4000 647 
L 4000 1878 
Q 4000 2228 3916 2372 
Q 3794 2572 3525 2572 
Q 3359 2572 3192 2489 
Q 3025 2406 2788 2181 
L 2781 2147 
L 2788 2013 
L 2788 647 
Q 2788 353 2820 281 
Q 2853 209 2943 161 
Q 3034 113 3253 113 
L 3253 0 
L 1806 0 
L 1806 113 
Q 2044 113 2133 169 
Q 2222 225 2256 338 
Q 2272 391 2272 647 
L 2272 1878 
Q 2272 2228 2169 2381 
Q 2031 2581 1784 2581 
Q 1616 2581 1450 2491 
Q 1191 2353 1050 2181 
L 1050 647 
Q 1050 366 1089 281 
Q 1128 197 1204 155 
Q 1281 113 1516 113 
L 1516 0 
L 100 0 
L 100 113 
Q 297 113 375 155 
Q 453 197 493 289 
Q 534 381 534 647 
L 534 1741 
Q 534 2213 506 2350 
Q 484 2453 437 2492 
Q 391 2531 309 2531 
Q 222 2531 100 2484 
L 53 2597 
L 916 2947 
L 1050 2947 
L 1050 2338 
z
" transform="scale(0.015625)"/>
      <path id="TimesNewRomanPSMT-6e" d="M 1034 2341 
Q 1538 2947 1994 2947 
Q 2228 2947 2397 2830 
Q 2566 2713 2666 2444 
Q 2734 2256 2734 1869 
L 2734 647 
Q 2734 375 2778 278 
Q 2813 200 2889 156 
Q 2966 113 3172 113 
L 3172 0 
L 1756 0 
L 1756 113 
L 1816 113 
Q 2016 113 2095 173 
Q 2175 234 2206 353 
Q 2219 400 2219 647 
L 2219 1819 
Q 2219 2209 2117 2386 
Q 2016 2563 1775 2563 
Q 1403 2563 1034 2156 
L 1034 647 
Q 1034 356 1069 288 
Q 1113 197 1189 155 
Q 1266 113 1500 113 
L 1500 0 
L 84 0 
L 84 113 
L 147 113 
Q 366 113 442 223 
Q 519 334 519 647 
L 519 1709 
Q 519 2225 495 2337 
Q 472 2450 423 2490 
Q 375 2531 294 2531 
Q 206 2531 84 2484 
L 38 2597 
L 900 2947 
L 1034 2947 
L 1034 2341 
z
" transform="scale(0.015625)"/>
      <path id="TimesNewRomanPSMT-45" d="M 1338 4006 
L 1338 2331 
L 2269 2331 
Q 2631 2331 2753 2441 
Q 2916 2584 2934 2947 
L 3050 2947 
L 3050 1472 
L 2934 1472 
Q 2891 1781 2847 1869 
Q 2791 1978 2662 2040 
Q 2534 2103 2269 2103 
L 1338 2103 
L 1338 706 
Q 1338 425 1363 364 
Q 1388 303 1450 267 
Q 1513 231 1688 231 
L 2406 231 
Q 2766 231 2928 281 
Q 3091 331 3241 478 
Q 3434 672 3638 1063 
L 3763 1063 
L 3397 0 
L 131 0 
L 131 116 
L 281 116 
Q 431 116 566 188 
Q 666 238 702 338 
Q 738 438 738 747 
L 738 3500 
Q 738 3903 656 3997 
Q 544 4122 281 4122 
L 131 4122 
L 131 4238 
L 3397 4238 
L 3444 3309 
L 3322 3309 
Q 3256 3644 3176 3769 
Q 3097 3894 2941 3959 
Q 2816 4006 2500 4006 
L 1338 4006 
z
" transform="scale(0.015625)"/>
      <path id="TimesNewRomanPSMT-76" d="M 53 2863 
L 1400 2863 
L 1400 2747 
L 1313 2747 
Q 1191 2747 1127 2687 
Q 1063 2628 1063 2528 
Q 1063 2419 1128 2269 
L 1794 688 
L 2463 2328 
Q 2534 2503 2534 2594 
Q 2534 2638 2509 2666 
Q 2475 2713 2422 2730 
Q 2369 2747 2206 2747 
L 2206 2863 
L 3141 2863 
L 3141 2747 
Q 2978 2734 2916 2681 
Q 2806 2588 2719 2369 
L 1703 -88 
L 1575 -88 
L 553 2328 
Q 484 2497 421 2570 
Q 359 2644 263 2694 
Q 209 2722 53 2747 
L 53 2863 
z
" transform="scale(0.015625)"/>
     </defs>
     <use xlink:href="#TimesNewRomanPSMT-48"/>
     <use xlink:href="#TimesNewRomanPSMT-75" x="72.216797"/>
     <use xlink:href="#TimesNewRomanPSMT-6d" x="122.216797"/>
     <use xlink:href="#TimesNewRomanPSMT-61" x="200"/>
     <use xlink:href="#TimesNewRomanPSMT-6e" x="244.384766"/>
     <use xlink:href="#TimesNewRomanPSMT-45" x="294.384766"/>
     <use xlink:href="#TimesNewRomanPSMT-76" x="355.46875"/>
     <use xlink:href="#TimesNewRomanPSMT-61" x="405.46875"/>
     <use xlink:href="#TimesNewRomanPSMT-6c" x="449.853516"/>
    </g>
   </g>
   <g id="text_34">
    <!-- MBPP -->
    <g transform="translate(102.320912 334.505023)scale(0.14 -0.14)">
     <defs>
      <path id="TimesNewRomanPSMT-42" d="M 2956 2163 
Q 3397 2069 3616 1863 
Q 3919 1575 3919 1159 
Q 3919 844 3719 555 
Q 3519 266 3170 133 
Q 2822 0 2106 0 
L 106 0 
L 106 116 
L 266 116 
Q 531 116 647 284 
Q 719 394 719 750 
L 719 3488 
Q 719 3881 628 3984 
Q 506 4122 266 4122 
L 106 4122 
L 106 4238 
L 1938 4238 
Q 2450 4238 2759 4163 
Q 3228 4050 3475 3764 
Q 3722 3478 3722 3106 
Q 3722 2788 3528 2536 
Q 3334 2284 2956 2163 
z
M 1319 2331 
Q 1434 2309 1582 2298 
Q 1731 2288 1909 2288 
Q 2366 2288 2595 2386 
Q 2825 2484 2947 2687 
Q 3069 2891 3069 3131 
Q 3069 3503 2766 3765 
Q 2463 4028 1881 4028 
Q 1569 4028 1319 3959 
L 1319 2331 
z
M 1319 306 
Q 1681 222 2034 222 
Q 2600 222 2897 476 
Q 3194 731 3194 1106 
Q 3194 1353 3059 1581 
Q 2925 1809 2622 1940 
Q 2319 2072 1872 2072 
Q 1678 2072 1540 2065 
Q 1403 2059 1319 2044 
L 1319 306 
z
" transform="scale(0.015625)"/>
      <path id="TimesNewRomanPSMT-50" d="M 1313 1984 
L 1313 750 
Q 1313 350 1400 253 
Q 1519 116 1759 116 
L 1922 116 
L 1922 0 
L 106 0 
L 106 116 
L 266 116 
Q 534 116 650 291 
Q 713 388 713 750 
L 713 3488 
Q 713 3888 628 3984 
Q 506 4122 266 4122 
L 106 4122 
L 106 4238 
L 1659 4238 
Q 2228 4238 2556 4120 
Q 2884 4003 3109 3725 
Q 3334 3447 3334 3066 
Q 3334 2547 2992 2222 
Q 2650 1897 2025 1897 
Q 1872 1897 1694 1919 
Q 1516 1941 1313 1984 
z
M 1313 2163 
Q 1478 2131 1606 2115 
Q 1734 2100 1825 2100 
Q 2150 2100 2386 2351 
Q 2622 2603 2622 3003 
Q 2622 3278 2509 3514 
Q 2397 3750 2190 3867 
Q 1984 3984 1722 3984 
Q 1563 3984 1313 3925 
L 1313 2163 
z
" transform="scale(0.015625)"/>
     </defs>
     <use xlink:href="#TimesNewRomanPSMT-4d"/>
     <use xlink:href="#TimesNewRomanPSMT-42" x="88.916016"/>
     <use xlink:href="#TimesNewRomanPSMT-50" x="155.615234"/>
     <use xlink:href="#TimesNewRomanPSMT-50" x="211.230469"/>
    </g>
   </g>
   <g id="text_35">
    <!-- CMMLU -->
    <g transform="translate(198.181209 352.77784)scale(0.14 -0.14)">
     <use xlink:href="#TimesNewRomanPSMT-43"/>
     <use xlink:href="#TimesNewRomanPSMT-4d" x="66.699219"/>
     <use xlink:href="#TimesNewRomanPSMT-4d" x="155.615234"/>
     <use xlink:href="#TimesNewRomanPSMT-4c" x="244.53125"/>
     <use xlink:href="#TimesNewRomanPSMT-55" x="305.615234"/>
    </g>
   </g>
   <g id="text_36">
    <!-- C-Eval -->
    <g transform="translate(295.933726 300.16336)scale(0.14 -0.14)">
     <use xlink:href="#TimesNewRomanPSMT-43"/>
     <use xlink:href="#TimesNewRomanPSMT-2d" x="66.699219"/>
     <use xlink:href="#TimesNewRomanPSMT-45" x="100"/>
     <use xlink:href="#TimesNewRomanPSMT-76" x="161.083984"/>
     <use xlink:href="#TimesNewRomanPSMT-61" x="211.083984"/>
     <use xlink:href="#TimesNewRomanPSMT-6c" x="255.46875"/>
    </g>
   </g>
   <g id="patch_6">
    <path d="M 392.041475 190.20181 
Q 392.112927 193.059292 392.128483 193.681405 
" style="fill: none; stroke: #000000; stroke-width: 2; stroke-linecap: round"/>
    <path d="M 394.027869 189.63266 
L 392.128483 193.681405 
L 390.029118 189.73265 
" style="fill: none; stroke: #000000; stroke-width: 2; stroke-linecap: round"/>
   </g>
   <g id="patch_7">
    <path d="M 239.224702 8.081872 
Q 236.423039 7.515309 235.813079 7.391961 
" style="fill: none; stroke: #000000; stroke-width: 2; stroke-linecap: round"/>
    <path d="M 239.337293 10.145126 
L 235.813079 7.391961 
L 240.130139 6.224488 
" style="fill: none; stroke: #000000; stroke-width: 2; stroke-linecap: round"/>
   </g>
   <g id="text_37">
    <!-- General Tasks -->
    <g transform="translate(320.923615 35.590457)rotate(-310)scale(0.16 -0.16)">
     <defs>
      <path id="TimesNewRomanPSMT-65" d="M 681 1784 
Q 678 1147 991 784 
Q 1303 422 1725 422 
Q 2006 422 2214 576 
Q 2422 731 2563 1106 
L 2659 1044 
Q 2594 616 2278 264 
Q 1963 -88 1488 -88 
Q 972 -88 605 314 
Q 238 716 238 1394 
Q 238 2128 614 2539 
Q 991 2950 1559 2950 
Q 2041 2950 2350 2633 
Q 2659 2316 2659 1784 
L 681 1784 
z
M 681 1966 
L 2006 1966 
Q 1991 2241 1941 2353 
Q 1863 2528 1708 2628 
Q 1553 2728 1384 2728 
Q 1125 2728 920 2526 
Q 716 2325 681 1966 
z
" transform="scale(0.015625)"/>
      <path id="TimesNewRomanPSMT-20" transform="scale(0.015625)"/>
      <path id="TimesNewRomanPSMT-73" d="M 2050 2947 
L 2050 1972 
L 1947 1972 
Q 1828 2431 1642 2597 
Q 1456 2763 1169 2763 
Q 950 2763 815 2647 
Q 681 2531 681 2391 
Q 681 2216 781 2091 
Q 878 1963 1175 1819 
L 1631 1597 
Q 2266 1288 2266 781 
Q 2266 391 1970 151 
Q 1675 -88 1309 -88 
Q 1047 -88 709 6 
Q 606 38 541 38 
Q 469 38 428 -44 
L 325 -44 
L 325 978 
L 428 978 
Q 516 541 762 319 
Q 1009 97 1316 97 
Q 1531 97 1667 223 
Q 1803 350 1803 528 
Q 1803 744 1651 891 
Q 1500 1038 1047 1263 
Q 594 1488 453 1669 
Q 313 1847 313 2119 
Q 313 2472 555 2709 
Q 797 2947 1181 2947 
Q 1350 2947 1591 2875 
Q 1750 2828 1803 2828 
Q 1853 2828 1881 2850 
Q 1909 2872 1947 2947 
L 2050 2947 
z
" transform="scale(0.015625)"/>
      <path id="TimesNewRomanPSMT-6b" d="M 1047 4444 
L 1047 1597 
L 1775 2259 
Q 2006 2472 2044 2528 
Q 2069 2566 2069 2603 
Q 2069 2666 2017 2711 
Q 1966 2756 1847 2763 
L 1847 2863 
L 3091 2863 
L 3091 2763 
Q 2834 2756 2664 2684 
Q 2494 2613 2291 2428 
L 1556 1750 
L 2291 822 
Q 2597 438 2703 334 
Q 2853 188 2966 144 
Q 3044 113 3238 113 
L 3238 0 
L 1847 0 
L 1847 113 
Q 1966 116 2008 148 
Q 2050 181 2050 241 
Q 2050 313 1925 472 
L 1047 1594 
L 1047 644 
Q 1047 366 1086 278 
Q 1125 191 1197 153 
Q 1269 116 1509 113 
L 1509 0 
L 53 0 
L 53 113 
Q 272 113 381 166 
Q 447 200 481 272 
Q 528 375 528 628 
L 528 3234 
Q 528 3731 506 3842 
Q 484 3953 434 3995 
Q 384 4038 303 4038 
Q 238 4038 106 3984 
L 53 4094 
L 903 4444 
L 1047 4444 
z
" transform="scale(0.015625)"/>
     </defs>
     <use xlink:href="#TimesNewRomanPSMT-47"/>
     <use xlink:href="#TimesNewRomanPSMT-65" x="72.216797"/>
     <use xlink:href="#TimesNewRomanPSMT-6e" x="116.601562"/>
     <use xlink:href="#TimesNewRomanPSMT-65" x="166.601562"/>
     <use xlink:href="#TimesNewRomanPSMT-72" x="210.986328"/>
     <use xlink:href="#TimesNewRomanPSMT-61" x="244.287109"/>
     <use xlink:href="#TimesNewRomanPSMT-6c" x="288.671875"/>
     <use xlink:href="#TimesNewRomanPSMT-20" x="316.455078"/>
     <use xlink:href="#TimesNewRomanPSMT-54" x="339.705078"/>
     <use xlink:href="#TimesNewRomanPSMT-61" x="393.789062"/>
     <use xlink:href="#TimesNewRomanPSMT-73" x="438.173828"/>
     <use xlink:href="#TimesNewRomanPSMT-6b" x="477.089844"/>
     <use xlink:href="#TimesNewRomanPSMT-73" x="527.089844"/>
    </g>
   </g>
   <g id="patch_8">
    <path d="M 94.173339 33.658341 
Q 96.612265 32.167721 97.143252 31.843193 
" style="fill: none; stroke: #000000; stroke-width: 2; stroke-linecap: round"/>
    <path d="M 92.687244 32.222649 
L 97.143252 31.843193 
L 94.773212 35.635673 
" style="fill: none; stroke: #000000; stroke-width: 2; stroke-linecap: round"/>
   </g>
   <g id="patch_9">
    <path d="M 18.13887 124.272693 
Q 17.094411 126.933409 16.867018 127.512684 
" style="fill: none; stroke: #000000; stroke-width: 2; stroke-linecap: round"/>
    <path d="M 20.190329 124.520093 
L 16.867018 127.512684 
L 16.466931 123.05848 
" style="fill: none; stroke: #000000; stroke-width: 2; stroke-linecap: round"/>
   </g>
   <g id="text_38">
    <!-- Mathematics -->
    <g transform="translate(19.242164 101.933736)rotate(-50)scale(0.16 -0.16)">
     <defs>
      <path id="TimesNewRomanPSMT-69" d="M 928 4444 
Q 1059 4444 1151 4351 
Q 1244 4259 1244 4128 
Q 1244 3997 1151 3903 
Q 1059 3809 928 3809 
Q 797 3809 703 3903 
Q 609 3997 609 4128 
Q 609 4259 701 4351 
Q 794 4444 928 4444 
z
M 1188 2947 
L 1188 647 
Q 1188 378 1227 289 
Q 1266 200 1342 156 
Q 1419 113 1622 113 
L 1622 0 
L 231 0 
L 231 113 
Q 441 113 512 153 
Q 584 194 626 287 
Q 669 381 669 647 
L 669 1750 
Q 669 2216 641 2353 
Q 619 2453 572 2492 
Q 525 2531 444 2531 
Q 356 2531 231 2484 
L 188 2597 
L 1050 2947 
L 1188 2947 
z
" transform="scale(0.015625)"/>
      <path id="TimesNewRomanPSMT-63" d="M 2631 1088 
Q 2516 522 2178 217 
Q 1841 -88 1431 -88 
Q 944 -88 581 321 
Q 219 731 219 1428 
Q 219 2103 620 2525 
Q 1022 2947 1584 2947 
Q 2006 2947 2278 2723 
Q 2550 2500 2550 2259 
Q 2550 2141 2473 2067 
Q 2397 1994 2259 1994 
Q 2075 1994 1981 2113 
Q 1928 2178 1911 2362 
Q 1894 2547 1784 2644 
Q 1675 2738 1481 2738 
Q 1169 2738 978 2506 
Q 725 2200 725 1697 
Q 725 1184 976 792 
Q 1228 400 1656 400 
Q 1963 400 2206 609 
Q 2378 753 2541 1131 
L 2631 1088 
z
" transform="scale(0.015625)"/>
     </defs>
     <use xlink:href="#TimesNewRomanPSMT-4d"/>
     <use xlink:href="#TimesNewRomanPSMT-61" x="88.916016"/>
     <use xlink:href="#TimesNewRomanPSMT-74" x="133.300781"/>
     <use xlink:href="#TimesNewRomanPSMT-68" x="161.083984"/>
     <use xlink:href="#TimesNewRomanPSMT-65" x="211.083984"/>
     <use xlink:href="#TimesNewRomanPSMT-6d" x="255.46875"/>
     <use xlink:href="#TimesNewRomanPSMT-61" x="333.251953"/>
     <use xlink:href="#TimesNewRomanPSMT-74" x="377.636719"/>
     <use xlink:href="#TimesNewRomanPSMT-69" x="405.419922"/>
     <use xlink:href="#TimesNewRomanPSMT-63" x="433.203125"/>
     <use xlink:href="#TimesNewRomanPSMT-73" x="477.587891"/>
    </g>
   </g>
   <g id="patch_10">
    <path d="M 18.13887 271.561707 
Q 17.094411 268.900991 16.867018 268.321716 
" style="fill: none; stroke: #000000; stroke-width: 2; stroke-linecap: round"/>
    <path d="M 16.466931 272.77592 
L 16.867018 268.321716 
L 20.190329 271.314307 
" style="fill: none; stroke: #000000; stroke-width: 2; stroke-linecap: round"/>
   </g>
   <g id="patch_11">
    <path d="M 94.173339 362.176059 
Q 96.612265 363.666679 97.143252 363.991207 
" style="fill: none; stroke: #000000; stroke-width: 2; stroke-linecap: round"/>
    <path d="M 94.773212 360.198727 
L 97.143252 363.991207 
L 92.687244 363.611751 
" style="fill: none; stroke: #000000; stroke-width: 2; stroke-linecap: round"/>
   </g>
   <g id="text_39">
    <!-- Code -->
    <g transform="translate(29.059713 317.56039)rotate(-310)scale(0.16 -0.16)">
     <defs>
      <path id="TimesNewRomanPSMT-6f" d="M 1600 2947 
Q 2250 2947 2644 2453 
Q 2978 2031 2978 1484 
Q 2978 1100 2793 706 
Q 2609 313 2286 112 
Q 1963 -88 1566 -88 
Q 919 -88 538 428 
Q 216 863 216 1403 
Q 216 1797 411 2186 
Q 606 2575 925 2761 
Q 1244 2947 1600 2947 
z
M 1503 2744 
Q 1338 2744 1170 2645 
Q 1003 2547 900 2300 
Q 797 2053 797 1666 
Q 797 1041 1045 587 
Q 1294 134 1700 134 
Q 2003 134 2200 384 
Q 2397 634 2397 1244 
Q 2397 2006 2069 2444 
Q 1847 2744 1503 2744 
z
" transform="scale(0.015625)"/>
      <path id="TimesNewRomanPSMT-64" d="M 2222 322 
Q 2013 103 1813 7 
Q 1613 -88 1381 -88 
Q 913 -88 563 304 
Q 213 697 213 1313 
Q 213 1928 600 2439 
Q 988 2950 1597 2950 
Q 1975 2950 2222 2709 
L 2222 3238 
Q 2222 3728 2198 3840 
Q 2175 3953 2125 3993 
Q 2075 4034 2000 4034 
Q 1919 4034 1784 3984 
L 1744 4094 
L 2597 4444 
L 2738 4444 
L 2738 1134 
Q 2738 631 2761 520 
Q 2784 409 2836 365 
Q 2888 322 2956 322 
Q 3041 322 3181 375 
L 3216 266 
L 2366 -88 
L 2222 -88 
L 2222 322 
z
M 2222 541 
L 2222 2016 
Q 2203 2228 2109 2403 
Q 2016 2578 1861 2667 
Q 1706 2756 1559 2756 
Q 1284 2756 1069 2509 
Q 784 2184 784 1559 
Q 784 928 1059 592 
Q 1334 256 1672 256 
Q 1956 256 2222 541 
z
" transform="scale(0.015625)"/>
     </defs>
     <use xlink:href="#TimesNewRomanPSMT-43"/>
     <use xlink:href="#TimesNewRomanPSMT-6f" x="66.699219"/>
     <use xlink:href="#TimesNewRomanPSMT-64" x="116.699219"/>
     <use xlink:href="#TimesNewRomanPSMT-65" x="166.699219"/>
    </g>
   </g>
   <g id="patch_12">
    <path d="M 239.224702 387.752528 
Q 236.423039 388.319091 235.813079 388.442439 
" style="fill: none; stroke: #000000; stroke-width: 2; stroke-linecap: round"/>
    <path d="M 240.130139 389.609912 
L 235.813079 388.442439 
L 239.337293 385.689274 
" style="fill: none; stroke: #000000; stroke-width: 2; stroke-linecap: round"/>
   </g>
   <g id="patch_13">
    <path d="M 341.665665 328.60821 
Q 343.557155 326.46518 343.968958 325.998614 
" style="fill: none; stroke: #000000; stroke-width: 2; stroke-linecap: round"/>
    <path d="M 339.82254 327.67409 
L 343.968958 325.998614 
L 342.821488 330.321034 
" style="fill: none; stroke: #000000; stroke-width: 2; stroke-linecap: round"/>
   </g>
   <g id="text_40">
    <!-- Chinese -->
    <g transform="translate(278.724145 389.428935)rotate(-30)scale(0.16 -0.16)">
     <use xlink:href="#TimesNewRomanPSMT-43"/>
     <use xlink:href="#TimesNewRomanPSMT-68" x="66.699219"/>
     <use xlink:href="#TimesNewRomanPSMT-69" x="116.699219"/>
     <use xlink:href="#TimesNewRomanPSMT-6e" x="144.482422"/>
     <use xlink:href="#TimesNewRomanPSMT-65" x="194.482422"/>
     <use xlink:href="#TimesNewRomanPSMT-73" x="238.867188"/>
     <use xlink:href="#TimesNewRomanPSMT-65" x="277.783203"/>
    </g>
   </g>
   <g id="legend_1">
    <g id="line2d_20">
     <path d="M 320.10752 222.560017 
L 334.10752 222.560017 
L 348.10752 222.560017 
" style="fill: none; stroke: #ff0000; stroke-width: 2; stroke-linecap: square"/>
    </g>
    <g id="text_41">
     <!-- LLaDA 8B Base -->
     <g transform="translate(359.30752 227.460017)scale(0.14 -0.14)">
      <defs>
       <path id="TimesNewRomanPSMT-44" d="M 109 0 
L 109 116 
L 269 116 
Q 538 116 650 288 
Q 719 391 719 750 
L 719 3488 
Q 719 3884 631 3984 
Q 509 4122 269 4122 
L 109 4122 
L 109 4238 
L 1834 4238 
Q 2784 4238 3279 4022 
Q 3775 3806 4076 3303 
Q 4378 2800 4378 2141 
Q 4378 1256 3841 663 
Q 3238 0 2003 0 
L 109 0 
z
M 1319 306 
Q 1716 219 1984 219 
Q 2709 219 3187 728 
Q 3666 1238 3666 2109 
Q 3666 2988 3187 3494 
Q 2709 4000 1959 4000 
Q 1678 4000 1319 3909 
L 1319 306 
z
" transform="scale(0.015625)"/>
      </defs>
      <use xlink:href="#TimesNewRomanPSMT-4c"/>
      <use xlink:href="#TimesNewRomanPSMT-4c" x="61.083984"/>
      <use xlink:href="#TimesNewRomanPSMT-61" x="122.167969"/>
      <use xlink:href="#TimesNewRomanPSMT-44" x="166.552734"/>
      <use xlink:href="#TimesNewRomanPSMT-41" x="238.769531"/>
      <use xlink:href="#TimesNewRomanPSMT-20" x="305.486328"/>
      <use xlink:href="#TimesNewRomanPSMT-38" x="330.486328"/>
      <use xlink:href="#TimesNewRomanPSMT-42" x="380.486328"/>
      <use xlink:href="#TimesNewRomanPSMT-20" x="447.185547"/>
      <use xlink:href="#TimesNewRomanPSMT-42" x="472.185547"/>
      <use xlink:href="#TimesNewRomanPSMT-61" x="538.884766"/>
      <use xlink:href="#TimesNewRomanPSMT-73" x="583.269531"/>
      <use xlink:href="#TimesNewRomanPSMT-65" x="622.185547"/>
     </g>
    </g>
    <g id="line2d_21">
     <path d="M 320.10752 242.354705 
L 334.10752 242.354705 
L 348.10752 242.354705 
" style="fill: none; stroke: #9400d3; stroke-width: 2; stroke-linecap: square"/>
    </g>
    <g id="text_42">
     <!-- LLaMA 3 8B Base -->
     <g transform="translate(359.30752 247.254705)scale(0.14 -0.14)">
      <use xlink:href="#TimesNewRomanPSMT-4c"/>
      <use xlink:href="#TimesNewRomanPSMT-4c" x="61.083984"/>
      <use xlink:href="#TimesNewRomanPSMT-61" x="122.167969"/>
      <use xlink:href="#TimesNewRomanPSMT-4d" x="166.552734"/>
      <use xlink:href="#TimesNewRomanPSMT-41" x="255.46875"/>
      <use xlink:href="#TimesNewRomanPSMT-20" x="322.185547"/>
      <use xlink:href="#TimesNewRomanPSMT-33" x="347.185547"/>
      <use xlink:href="#TimesNewRomanPSMT-20" x="397.185547"/>
      <use xlink:href="#TimesNewRomanPSMT-38" x="422.185547"/>
      <use xlink:href="#TimesNewRomanPSMT-42" x="472.185547"/>
      <use xlink:href="#TimesNewRomanPSMT-20" x="538.884766"/>
      <use xlink:href="#TimesNewRomanPSMT-42" x="563.884766"/>
      <use xlink:href="#TimesNewRomanPSMT-61" x="630.583984"/>
      <use xlink:href="#TimesNewRomanPSMT-73" x="674.96875"/>
      <use xlink:href="#TimesNewRomanPSMT-65" x="713.884766"/>
     </g>
    </g>
    <g id="line2d_22">
     <path d="M 320.10752 262.149392 
L 334.10752 262.149392 
L 348.10752 262.149392 
" style="fill: none; stroke: #0000ff; stroke-width: 2; stroke-linecap: square"/>
    </g>
    <g id="text_43">
     <!-- LLaMA 2 7B Base -->
     <g transform="translate(359.30752 267.049392)scale(0.14 -0.14)">
      <use xlink:href="#TimesNewRomanPSMT-4c"/>
      <use xlink:href="#TimesNewRomanPSMT-4c" x="61.083984"/>
      <use xlink:href="#TimesNewRomanPSMT-61" x="122.167969"/>
      <use xlink:href="#TimesNewRomanPSMT-4d" x="166.552734"/>
      <use xlink:href="#TimesNewRomanPSMT-41" x="255.46875"/>
      <use xlink:href="#TimesNewRomanPSMT-20" x="322.185547"/>
      <use xlink:href="#TimesNewRomanPSMT-32" x="347.185547"/>
      <use xlink:href="#TimesNewRomanPSMT-20" x="397.185547"/>
      <use xlink:href="#TimesNewRomanPSMT-37" x="422.185547"/>
      <use xlink:href="#TimesNewRomanPSMT-42" x="472.185547"/>
      <use xlink:href="#TimesNewRomanPSMT-20" x="538.884766"/>
      <use xlink:href="#TimesNewRomanPSMT-42" x="563.884766"/>
      <use xlink:href="#TimesNewRomanPSMT-61" x="630.583984"/>
      <use xlink:href="#TimesNewRomanPSMT-73" x="674.96875"/>
      <use xlink:href="#TimesNewRomanPSMT-65" x="713.884766"/>
     </g>
    </g>
   </g>
  </g>
 </g>
 <defs>
  <clipPath id="pea70fced03">
   <path d="M 392.2344 197.9172 
C 392.2344 172.399699 387.208009 147.130324 377.442884 123.555227 
C 367.677759 99.98013 353.363808 78.557788 335.32021 60.51419 
C 317.276612 42.470592 295.85427 28.156641 272.279173 18.391516 
C 248.704076 8.626391 223.434701 3.6 197.9172 3.6 
C 172.399699 3.6 147.130324 8.626391 123.555227 18.391516 
C 99.98013 28.156641 78.557788 42.470592 60.51419 60.51419 
C 42.470592 78.557788 28.156641 99.98013 18.391516 123.555227 
C 8.626391 147.130324 3.6 172.399699 3.6 197.9172 
C 3.6 223.434701 8.626391 248.704076 18.391516 272.279173 
C 28.156641 295.85427 42.470592 317.276612 60.51419 335.32021 
C 78.557788 353.363808 99.98013 367.677759 123.555227 377.442884 
C 147.130324 387.208009 172.399699 392.2344 197.9172 392.2344 
C 223.434701 392.2344 248.704076 387.208009 272.279173 377.442884 
C 295.85427 367.677759 317.276612 353.363808 335.32021 335.32021 
C 353.363808 317.276612 367.677759 295.85427 377.442884 272.279173 
C 387.208009 248.704076 392.2344 223.434701 392.2344 197.9172 
M 197.9172 197.9172 
C 197.9172 197.9172 197.9172 197.9172 197.9172 197.9172 
C 197.9172 197.9172 197.9172 197.9172 197.9172 197.9172 
C 197.9172 197.9172 197.9172 197.9172 197.9172 197.9172 
C 197.9172 197.9172 197.9172 197.9172 197.9172 197.9172 
C 197.9172 197.9172 197.9172 197.9172 197.9172 197.9172 
C 197.9172 197.9172 197.9172 197.9172 197.9172 197.9172 
C 197.9172 197.9172 197.9172 197.9172 197.9172 197.9172 
C 197.9172 197.9172 197.9172 197.9172 197.9172 197.9172 
C 197.9172 197.9172 197.9172 197.9172 197.9172 197.9172 
C 197.9172 197.9172 197.9172 197.9172 197.9172 197.9172 
C 197.9172 197.9172 197.9172 197.9172 197.9172 197.9172 
C 197.9172 197.9172 197.9172 197.9172 197.9172 197.9172 
C 197.9172 197.9172 197.9172 197.9172 197.9172 197.9172 
C 197.9172 197.9172 197.9172 197.9172 197.9172 197.9172 
C 197.9172 197.9172 197.9172 197.9172 197.9172 197.9172 
C 197.9172 197.9172 197.9172 197.9172 197.9172 197.9172 
M 392.2344 197.9172 
z
"/>
  </clipPath>
 </defs>
</svg>
