<?xml version="1.0" encoding="utf-8" standalone="no"?>
<!DOCTYPE svg PUBLIC "-//W3C//DTD SVG 1.1//EN"
  "http://www.w3.org/Graphics/SVG/1.1/DTD/svg11.dtd">
<svg xmlns:xlink="http://www.w3.org/1999/xlink" width="486.976792pt" height="407.359324pt" viewBox="0 0 486.976792 407.359324" xmlns="http://www.w3.org/2000/svg" version="1.1">
 <metadata>
  <rdf:RDF xmlns:dc="http://purl.org/dc/elements/1.1/" xmlns:cc="http://creativecommons.org/ns#" xmlns:rdf="http://www.w3.org/1999/02/22-rdf-syntax-ns#">
   <cc:Work>
    <dc:type rdf:resource="http://purl.org/dc/dcmitype/StillImage"/>
    <dc:date>2025-02-08T12:14:34.456208</dc:date>
    <dc:format>image/svg+xml</dc:format>
    <dc:creator>
     <cc:Agent>
      <dc:title>Matplotlib v3.5.1, https://matplotlib.org/</dc:title>
     </cc:Agent>
    </dc:creator>
   </cc:Work>
  </rdf:RDF>
 </metadata>
 <defs>
  <style type="text/css">*{stroke-linejoin: round; stroke-linecap: butt}</style>
 </defs>
 <g id="figure_1">
  <g id="patch_1">
   <path d="M -0 407.359324 
L 486.976792 407.359324 
L 486.976792 0 
L -0 0 
z
" style="fill: #ffffff"/>
  </g>
  <g id="axes_1">
   <g id="patch_2">
    <path d="M 405.205605 197.64 
C 405.205605 172.158901 400.186384 146.925573 390.435189 123.384107 
C 380.683995 99.842641 366.390463 78.450858 348.372605 60.433 
C 330.354747 42.415142 308.962964 28.12161 285.421498 18.370416 
C 261.880032 8.619221 236.646704 3.6 211.165605 3.6 
C 185.684506 3.6 160.451178 8.619221 136.909712 18.370416 
C 113.368245 28.12161 91.976463 42.415142 73.958605 60.433 
C 55.940747 78.450858 41.647215 99.842641 31.89602 123.384107 
C 22.144826 146.925573 17.125605 172.158901 17.125605 197.64 
C 17.125605 223.121099 22.144826 248.354427 31.89602 271.895893 
C 41.647215 295.437359 55.940747 316.829142 73.958605 334.847 
C 91.976463 352.864858 113.368245 367.15839 136.909712 376.909584 
C 160.451178 386.660779 185.684506 391.68 211.165605 391.68 
C 236.646704 391.68 261.880032 386.660779 285.421498 376.909584 
C 308.962964 367.15839 330.354747 352.864858 348.372605 334.847 
C 366.390463 316.829142 380.683995 295.437359 390.435189 271.895893 
C 400.186384 248.354427 405.205605 223.121099 405.205605 197.64 
M 211.165605 197.64 
C 211.165605 197.64 211.165605 197.64 211.165605 197.64 
C 211.165605 197.64 211.165605 197.64 211.165605 197.64 
C 211.165605 197.64 211.165605 197.64 211.165605 197.64 
C 211.165605 197.64 211.165605 197.64 211.165605 197.64 
C 211.165605 197.64 211.165605 197.64 211.165605 197.64 
C 211.165605 197.64 211.165605 197.64 211.165605 197.64 
C 211.165605 197.64 211.165605 197.64 211.165605 197.64 
C 211.165605 197.64 211.165605 197.64 211.165605 197.64 
C 211.165605 197.64 211.165605 197.64 211.165605 197.64 
C 211.165605 197.64 211.165605 197.64 211.165605 197.64 
C 211.165605 197.64 211.165605 197.64 211.165605 197.64 
C 211.165605 197.64 211.165605 197.64 211.165605 197.64 
C 211.165605 197.64 211.165605 197.64 211.165605 197.64 
C 211.165605 197.64 211.165605 197.64 211.165605 197.64 
C 211.165605 197.64 211.165605 197.64 211.165605 197.64 
C 211.165605 197.64 211.165605 197.64 211.165605 197.64 
M 405.205605 197.64 
z
" style="fill: #ffffff"/>
   </g>
   <g id="patch_3">
    <path d="M 317.258924 197.64 
L 272.164209 121.15017 
L 186.512381 89.627171 
L 111.346741 149.569769 
L 121.463518 240.838248 
L 191.541969 283.616767 
L 252.179953 249.070366 
z
" clip-path="url(#p29d7ed03f2)" style="fill: #ff0000; opacity: 0.2; stroke: #ff0000; stroke-linejoin: miter"/>
   </g>
   <g id="patch_4">
    <path d="M 321.956185 197.64 
L 280.242402 111.020436 
L 188.211643 97.072123 
L 111.727729 149.753243 
L 111.346741 245.710231 
L 186.512381 305.652829 
L 280.242402 284.259564 
z
" clip-path="url(#p29d7ed03f2)" style="fill: #9400d3; opacity: 0.2; stroke: #9400d3; stroke-linejoin: miter"/>
   </g>
   <g id="patch_5">
    <path d="M 282.596374 197.64 
L 218.749215 188.130454 
L 195.203687 127.70627 
L 174.336762 179.904164 
L 198.351021 203.811178 
L 204.363294 227.442871 
L 235.870154 228.618525 
z
" clip-path="url(#p29d7ed03f2)" style="fill: #0000ff; opacity: 0.2; stroke: #0000ff; stroke-linejoin: miter"/>
   </g>
   <g id="matplotlib.axis_1"/>
   <g id="matplotlib.axis_2"/>
   <g id="line2d_1">
    <path d="M 317.258924 197.64 
L 272.164209 121.15017 
L 186.512381 89.627171 
L 111.346741 149.569769 
L 121.463518 240.838248 
L 191.541969 283.616767 
L 252.179953 249.070366 
L 317.258924 197.64 
" clip-path="url(#p29d7ed03f2)" style="fill: none; stroke: #ff0000; stroke-width: 2; stroke-linecap: square"/>
   </g>
   <g id="line2d_2">
    <path d="M 321.956185 197.64 
L 280.242402 111.020436 
L 188.211643 97.072123 
L 111.727729 149.753243 
L 111.346741 245.710231 
L 186.512381 305.652829 
L 280.242402 284.259564 
L 321.956185 197.64 
" clip-path="url(#p29d7ed03f2)" style="fill: none; stroke: #9400d3; stroke-width: 2; stroke-linecap: square"/>
   </g>
   <g id="line2d_3">
    <path d="M 282.596374 197.64 
L 218.749215 188.130454 
L 195.203687 127.70627 
L 174.336762 179.904164 
L 198.351021 203.811178 
L 204.363294 227.442871 
L 235.870154 228.618525 
L 282.596374 197.64 
" clip-path="url(#p29d7ed03f2)" style="fill: none; stroke: #0000ff; stroke-width: 2; stroke-linecap: square"/>
   </g>
   <g id="line2d_4">
    <path d="M 286.277863 197.64 
L 286.128153 192.899994 
L 285.679621 188.178882 
L 284.934054 183.495486 
L 283.894424 178.868473 
L 282.564875 174.316289 
L 280.950709 169.857081 
L 279.058358 165.508623 
L 276.895367 161.288251 
L 274.470358 157.212787 
L 271.792998 153.298478 
L 268.873958 149.560927 
L 265.724877 146.015034 
L 262.358306 142.674933 
L 258.787666 139.553938 
L 255.027191 136.664492 
L 251.091871 134.018112 
L 246.997392 131.625348 
L 242.760078 129.495737 
L 238.396819 127.637769 
L 233.925008 126.058851 
L 229.362472 124.765276 
L 224.727397 123.762202 
L 220.038262 123.053625 
L 215.313757 122.642372 
L 210.572716 122.530082 
L 205.834039 122.717202 
L 201.116615 123.202986 
L 196.43925 123.985497 
L 191.820587 125.061617 
L 187.27904 126.427056 
L 182.832712 128.076371 
L 178.499327 130.002987 
L 174.296159 132.199223 
L 170.239964 134.656326 
L 166.34691 137.3645 
L 162.632517 140.31295 
L 159.111591 143.489922 
L 155.798167 146.882753 
L 152.705454 150.477917 
L 149.845781 154.261082 
L 147.230546 158.217169 
L 144.870176 162.330407 
L 142.774078 166.584399 
L 140.950609 170.962188 
L 139.407038 175.446322 
L 138.149517 180.018927 
L 137.18306 184.661775 
L 136.511519 189.356357 
L 136.137571 194.083961 
L 136.062707 198.82574 
L 136.287225 203.562793 
L 136.81023 208.276235 
L 137.629637 212.947279 
L 138.742181 217.557303 
L 140.143425 222.08793 
L 141.827785 226.521102 
L 143.788545 230.839144 
L 146.017891 235.024845 
L 148.506934 239.061519 
L 151.245753 242.933075 
L 154.22343 246.62408 
L 157.428095 250.119819 
L 160.846974 253.406358 
L 164.466438 256.470597 
L 168.272058 259.300319 
L 172.248665 261.884246 
L 176.380406 264.212075 
L 180.65081 266.274529 
L 185.042856 268.063386 
L 189.539035 269.571515 
L 194.121424 270.792903 
L 198.771755 271.722682 
L 203.471492 272.357146 
L 208.201901 272.693766 
L 212.944123 272.731199 
L 217.679256 272.469297 
L 222.388423 271.909103 
L 227.052853 271.052851 
L 231.653952 269.903953 
L 236.173378 268.466991 
L 240.593115 266.747691 
L 244.895547 264.752907 
L 249.06352 262.490592 
L 253.080422 259.969764 
L 256.930238 257.20047 
L 260.597624 254.193751 
L 264.067959 250.961593 
L 267.327409 247.516879 
L 270.362983 243.873341 
L 273.162578 240.045503 
L 275.715035 236.048624 
L 278.010179 231.898638 
L 280.038861 227.612086 
L 281.792994 223.206057 
L 283.265585 218.698114 
L 284.450765 214.106228 
L 285.343808 209.448702 
L 285.941156 204.744103 
L 286.240426 200.011185 
L 286.277863 197.64 
L 286.277863 197.64 
" clip-path="url(#p29d7ed03f2)" style="fill: none; stroke-dasharray: 3.7,1.6; stroke-dashoffset: 0; stroke: #808080"/>
   </g>
   <g id="line2d_5">
    <path d="M 305.055927 197.64 
L 304.86879 191.714992 
L 304.308125 185.813603 
L 303.376166 179.959357 
L 302.076628 174.175591 
L 300.414693 168.485362 
L 298.396985 162.911351 
L 296.031546 157.475779 
L 293.327808 152.200314 
L 290.296546 147.105984 
L 286.949846 142.213098 
L 283.301047 137.541159 
L 279.364695 133.108792 
L 275.156482 128.933666 
L 270.693182 125.032423 
L 265.992588 121.420615 
L 261.073437 118.11264 
L 255.955339 115.121685 
L 250.658696 112.459671 
L 245.204622 110.137212 
L 239.614859 108.163564 
L 233.911688 106.546595 
L 228.117845 105.292752 
L 222.256426 104.407032 
L 216.350795 103.892965 
L 210.424494 103.752602 
L 204.501148 103.986502 
L 198.604368 104.593732 
L 192.757661 105.571872 
L 186.984333 106.917022 
L 181.307399 108.62382 
L 175.749489 110.685464 
L 170.332757 113.093733 
L 165.078798 115.839029 
L 160.008553 118.910407 
L 155.142236 122.295625 
L 150.499245 125.981187 
L 146.098087 129.952403 
L 141.956308 134.193441 
L 138.090417 138.687396 
L 134.515825 143.416353 
L 131.246782 148.361461 
L 128.296318 153.503008 
L 125.676196 158.820498 
L 123.39686 164.292734 
L 121.467396 169.897902 
L 119.895495 175.613659 
L 118.687423 181.417218 
L 117.847997 187.285447 
L 117.380562 193.194951 
L 117.286982 199.122175 
L 117.567629 205.043491 
L 118.221386 210.935294 
L 119.245645 216.774098 
L 120.636325 222.536628 
L 122.38788 228.199913 
L 124.49333 233.741377 
L 126.944281 239.13893 
L 129.730962 244.371057 
L 132.842266 249.416899 
L 136.26579 254.256344 
L 139.987886 258.870099 
L 143.993718 263.239774 
L 148.267317 267.347948 
L 152.791646 271.178246 
L 157.548672 274.715399 
L 162.51943 277.945307 
L 167.684106 280.855094 
L 173.022112 283.433162 
L 178.512169 285.669233 
L 184.132392 287.554393 
L 189.860378 289.081129 
L 195.673293 290.243353 
L 201.547964 291.036433 
L 207.460974 291.457207 
L 213.388752 291.503999 
L 219.307668 291.176621 
L 225.194127 290.476379 
L 231.024665 289.406063 
L 236.776038 287.969942 
L 242.425321 286.173738 
L 247.949993 284.024614 
L 253.328032 281.531134 
L 258.537999 278.70324 
L 263.559126 275.552205 
L 268.371397 272.090588 
L 272.955629 268.332189 
L 277.293547 264.291991 
L 281.367861 259.986098 
L 285.162327 255.431676 
L 288.661821 250.646878 
L 291.852392 245.65078 
L 294.721322 240.463297 
L 297.257175 235.105108 
L 299.449841 229.597571 
L 301.29058 223.962643 
L 302.772055 218.222785 
L 303.888359 212.400877 
L 304.635044 206.520129 
L 305.009131 200.603981 
L 305.055927 197.64 
L 305.055927 197.64 
" clip-path="url(#p29d7ed03f2)" style="fill: none; stroke-dasharray: 3.7,1.6; stroke-dashoffset: 0; stroke: #808080"/>
   </g>
   <g id="line2d_6">
    <path d="M 323.833992 197.64 
L 323.777837 194.083222 
L 323.609427 190.52999 
L 323.328931 186.983846 
L 322.936629 183.448323 
L 322.43291 179.926947 
L 321.818278 176.423228 
L 321.093345 172.940659 
L 320.258833 169.48271 
L 319.315575 166.052829 
L 318.264511 162.654434 
L 317.106688 159.290914 
L 315.843261 155.965621 
L 314.475488 152.681871 
L 313.004735 149.442935 
L 311.432466 146.252043 
L 309.760248 143.112376 
L 307.98975 140.027064 
L 306.122735 136.999181 
L 304.161064 134.031746 
L 302.106694 131.127717 
L 299.961672 128.289989 
L 297.728135 125.521391 
L 295.408312 122.824682 
L 293.004513 120.202551 
L 290.519136 117.657611 
L 287.954657 115.192399 
L 285.313633 112.809373 
L 282.598697 110.510908 
L 279.812555 108.299295 
L 276.957984 106.176738 
L 274.03783 104.145355 
L 271.055004 102.207168 
L 268.012478 100.364112 
L 264.913286 98.618022 
L 261.760517 96.970639 
L 258.557315 95.423606 
L 255.306871 93.978464 
L 252.012426 92.636654 
L 248.677264 91.399514 
L 245.30471 90.268277 
L 241.898125 89.24407 
L 238.460905 88.327915 
L 234.996477 87.520724 
L 231.508293 86.823302 
L 227.999832 86.236345 
L 224.47459 85.760438 
L 220.936081 85.396055 
L 217.387833 85.143559 
L 213.833382 85.003201 
L 210.276272 84.975123 
L 206.720048 85.059351 
L 203.168256 85.255802 
L 199.624436 85.564281 
L 196.09212 85.984478 
L 192.57483 86.515977 
L 189.076072 87.158246 
L 185.599333 87.910646 
L 182.148079 88.772426 
L 178.72575 89.742728 
L 175.335758 90.820585 
L 171.981482 92.004921 
L 168.666265 93.294556 
L 165.393413 94.688206 
L 162.166188 96.18448 
L 158.987806 97.781887 
L 155.861436 99.478835 
L 152.790195 101.273632 
L 149.777143 103.164489 
L 146.825285 105.149521 
L 143.937563 107.22675 
L 141.116855 109.394105 
L 138.365973 111.649425 
L 135.687659 113.990462 
L 133.084584 116.414883 
L 130.559341 118.920272 
L 128.114448 121.504129 
L 125.752343 124.163881 
L 123.475379 126.896875 
L 121.285827 129.700387 
L 119.185869 132.571623 
L 117.177598 135.507721 
L 115.263017 138.505753 
L 113.444034 141.562732 
L 111.722461 144.67561 
L 110.100016 147.841284 
L 108.578315 151.056598 
L 107.158875 154.318348 
L 105.843111 157.623281 
L 104.632335 160.968105 
L 103.527754 164.349483 
L 102.530469 167.764046 
L 101.641473 171.20839 
L 100.861653 174.679082 
L 100.191787 178.172662 
L 99.632542 181.685647 
L 99.184476 185.214536 
L 98.848034 188.755811 
L 98.623554 192.305942 
L 98.511257 195.86139 
L 98.511257 199.41861 
L 98.623554 202.974058 
L 98.848034 206.524189 
L 99.184476 210.065464 
L 99.632542 213.594353 
L 100.191787 217.107338 
L 100.861653 220.600918 
L 101.641473 224.07161 
L 102.530469 227.515954 
L 103.527754 230.930517 
L 104.632335 234.311895 
L 105.843111 237.656719 
L 107.158875 240.961652 
L 108.578315 244.223402 
L 110.100016 247.438716 
L 111.722461 250.60439 
L 113.444034 253.717268 
L 115.263017 256.774247 
L 117.177598 259.772279 
L 119.185869 262.708377 
L 121.285827 265.579613 
L 123.475379 268.383125 
L 125.752343 271.116119 
L 128.114448 273.775871 
L 130.559341 276.359728 
L 133.084584 278.865117 
L 135.687659 281.289538 
L 138.365973 283.630575 
L 141.116855 285.885895 
L 143.937563 288.05325 
L 146.825285 290.130479 
L 149.777143 292.115511 
L 152.790195 294.006368 
L 155.861436 295.801165 
L 158.987806 297.498113 
L 162.166188 299.09552 
L 165.393413 300.591794 
L 168.666265 301.985444 
L 171.981482 303.275079 
L 175.335758 304.459415 
L 178.72575 305.537272 
L 182.148079 306.507574 
L 185.599333 307.369354 
L 189.076072 308.121754 
L 192.57483 308.764023 
L 196.09212 309.295522 
L 199.624436 309.715719 
L 203.168256 310.024198 
L 206.720048 310.220649 
L 210.276272 310.304877 
L 213.833382 310.276799 
L 217.387833 310.136441 
L 220.936081 309.883945 
L 224.47459 309.519562 
L 227.999832 309.043655 
L 231.508293 308.456698 
L 234.996477 307.759276 
L 238.460905 306.952085 
L 241.898125 306.03593 
L 245.30471 305.011723 
L 248.677264 303.880486 
L 252.012426 302.643346 
L 255.306871 301.301536 
L 258.557315 299.856394 
L 261.760517 298.309361 
L 264.913286 296.661978 
L 268.012478 294.915888 
L 271.055004 293.072832 
L 274.03783 291.134645 
L 276.957984 289.103262 
L 279.812555 286.980705 
L 282.598697 284.769092 
L 285.313633 282.470627 
L 287.954657 280.087601 
L 290.519136 277.622389 
L 293.004513 275.077449 
L 295.408312 272.455318 
L 297.728135 269.758609 
L 299.961672 266.990011 
L 302.106694 264.152283 
L 304.161064 261.248254 
L 306.122735 258.280819 
L 307.98975 255.252936 
L 309.760248 252.167624 
L 311.432466 249.027957 
L 313.004735 245.837065 
L 314.475488 242.598129 
L 315.843261 239.314379 
L 317.106688 235.989086 
L 318.264511 232.625566 
L 319.315575 229.227171 
L 320.258833 225.79729 
L 321.093345 222.339341 
L 321.818278 218.856772 
L 322.43291 215.353053 
L 322.936629 211.831677 
L 323.328931 208.296154 
L 323.609427 204.75001 
L 323.777837 201.196778 
L 323.833992 197.64 
L 323.833992 197.64 
" clip-path="url(#p29d7ed03f2)" style="fill: none; stroke-dasharray: 3.7,1.6; stroke-dashoffset: 0; stroke: #808080"/>
   </g>
   <g id="line2d_7">
    <path d="M 211.165605 197.64 
L 357.634508 197.64 
" clip-path="url(#p29d7ed03f2)" style="fill: none; stroke-dasharray: 3.7,1.6; stroke-dashoffset: 0; stroke: #808080; stroke-opacity: 0.6"/>
   </g>
   <g id="line2d_8">
    <path d="M 211.165605 197.64 
L 302.487472 83.126 
" clip-path="url(#p29d7ed03f2)" style="fill: none; stroke-dasharray: 3.7,1.6; stroke-dashoffset: 0; stroke: #808080; stroke-opacity: 0.6"/>
   </g>
   <g id="line2d_9">
    <path d="M 211.165605 197.64 
L 178.573208 54.843378 
" clip-path="url(#p29d7ed03f2)" style="fill: none; stroke-dasharray: 3.7,1.6; stroke-dashoffset: 0; stroke: #808080; stroke-opacity: 0.6"/>
   </g>
   <g id="line2d_10">
    <path d="M 211.165605 197.64 
L 79.201683 134.089525 
" clip-path="url(#p29d7ed03f2)" style="fill: none; stroke-dasharray: 3.7,1.6; stroke-dashoffset: 0; stroke: #808080; stroke-opacity: 0.6"/>
   </g>
   <g id="line2d_11">
    <path d="M 211.165605 197.64 
L 79.201683 261.190475 
" clip-path="url(#p29d7ed03f2)" style="fill: none; stroke-dasharray: 3.7,1.6; stroke-dashoffset: 0; stroke: #808080; stroke-opacity: 0.6"/>
   </g>
   <g id="line2d_12">
    <path d="M 211.165605 197.64 
L 178.573208 340.436622 
" clip-path="url(#p29d7ed03f2)" style="fill: none; stroke-dasharray: 3.7,1.6; stroke-dashoffset: 0; stroke: #808080; stroke-opacity: 0.6"/>
   </g>
   <g id="line2d_13">
    <path d="M 211.165605 197.64 
L 302.487472 312.154 
" clip-path="url(#p29d7ed03f2)" style="fill: none; stroke-dasharray: 3.7,1.6; stroke-dashoffset: 0; stroke: #808080; stroke-opacity: 0.6"/>
   </g>
   <g id="line2d_14">
    <path d="M 405.205605 197.64 
L 405.079291 190.639714 
L 404.700513 183.648543 
L 404.069765 176.675587 
L 403.187868 169.729926 
L 402.055969 162.820602 
L 400.675543 155.956611 
L 399.048387 149.146889 
L 397.176619 142.400302 
L 395.062676 135.725633 
L 392.709311 129.131574 
L 390.119587 122.626708 
L 387.296875 116.219504 
L 384.244852 109.918305 
L 380.967491 103.731315 
L 377.469058 97.666587 
L 373.754108 91.732019 
L 369.827477 85.935337 
L 365.694279 80.284087 
L 361.359894 74.785627 
L 356.829966 69.447116 
L 352.110391 64.275504 
L 347.207315 59.277525 
L 342.127122 54.459685 
L 336.876424 49.828256 
L 331.462059 45.38927 
L 325.891075 41.148505 
L 320.170725 37.111481 
L 314.308458 33.283456 
L 308.311905 29.669414 
L 302.188874 26.274058 
L 295.947336 23.10181 
L 289.595417 20.156801 
L 283.141388 17.442863 
L 276.593651 14.963531 
L 269.96073 12.722032 
L 263.251262 10.721285 
L 256.473981 8.963895 
L 249.637712 7.452149 
L 242.751354 6.188016 
L 235.823874 5.173142 
L 228.86429 4.408848 
L 221.881664 3.896129 
L 214.885086 3.635652 
L 207.883665 3.627757 
L 200.886518 3.872454 
L 193.902753 4.369424 
L 186.941463 5.118021 
L 180.011711 6.117269 
L 173.12252 7.365868 
L 167.987643 8.464988 
L 167.987643 8.464988 
" clip-path="url(#p29d7ed03f2)" style="fill: none; stroke: #000000; stroke-opacity: 0.7; stroke-width: 2; stroke-linecap: square"/>
   </g>
   <g id="line2d_15">
    <path d="M 36.341606 113.449199 
L 33.418101 119.811044 
L 30.726012 126.274218 
L 28.268844 132.830305 
L 26.049797 139.47077 
L 24.071759 146.186968 
L 22.337306 152.970155 
L 20.848695 159.8115 
L 19.607865 166.702094 
L 18.616432 173.632968 
L 17.875686 180.595098 
L 17.386591 187.579418 
L 17.149784 194.576838 
L 17.165574 201.578245 
L 17.43394 208.574525 
L 17.954533 215.556568 
L 18.726675 222.515286 
L 19.74936 229.441617 
L 21.021258 236.326545 
L 22.540711 243.161105 
L 24.305743 249.9364 
L 26.314054 256.643608 
L 28.563031 263.273997 
L 31.049745 269.818934 
L 33.770958 276.269899 
L 36.341606 281.830801 
L 36.341606 281.830801 
" clip-path="url(#p29d7ed03f2)" style="fill: none; stroke: #000000; stroke-opacity: 0.7; stroke-width: 2; stroke-linecap: square"/>
   </g>
   <g id="line2d_16">
    <path d="M 167.987643 386.815012 
L 174.840524 388.249575 
L 181.740698 389.435976 
L 188.679182 390.372671 
L 195.646942 391.058439 
L 202.634906 391.492389 
L 209.633976 391.673955 
L 216.63504 391.602901 
L 223.628984 391.279319 
L 230.606701 390.70363 
L 237.559107 389.876585 
L 244.47715 388.79926 
L 251.351824 387.473057 
L 258.174178 385.899703 
L 264.935329 384.081246 
L 271.626476 382.020055 
L 278.238906 379.718812 
L 284.764011 377.180514 
L 291.193295 374.408465 
L 297.518389 371.406275 
L 303.731056 368.177852 
L 309.823209 364.727399 
L 315.786916 361.059408 
L 321.614412 357.178656 
L 327.298111 353.090194 
L 332.147566 349.346581 
L 332.147566 349.346581 
" clip-path="url(#p29d7ed03f2)" style="fill: none; stroke: #000000; stroke-opacity: 0.7; stroke-width: 2; stroke-linecap: square"/>
   </g>
   <g id="text_1">
    <!-- 46 -->
    <g style="fill: #808080" transform="translate(281.781605 194.645312)scale(0.14 -0.14)">
     <defs>
      <path id="TimesNewRomanPSMT-34" d="M 2978 1563 
L 2978 1119 
L 2409 1119 
L 2409 0 
L 1894 0 
L 1894 1119 
L 100 1119 
L 100 1519 
L 2066 4325 
L 2409 4325 
L 2409 1563 
L 2978 1563 
z
M 1894 1563 
L 1894 3666 
L 406 1563 
L 1894 1563 
z
" transform="scale(0.015625)"/>
      <path id="TimesNewRomanPSMT-36" d="M 2869 4325 
L 2869 4209 
Q 2456 4169 2195 4045 
Q 1934 3922 1679 3669 
Q 1425 3416 1258 3105 
Q 1091 2794 978 2366 
Q 1428 2675 1881 2675 
Q 2316 2675 2634 2325 
Q 2953 1975 2953 1425 
Q 2953 894 2631 456 
Q 2244 -75 1606 -75 
Q 1172 -75 869 213 
Q 275 772 275 1663 
Q 275 2231 503 2743 
Q 731 3256 1154 3653 
Q 1578 4050 1965 4187 
Q 2353 4325 2688 4325 
L 2869 4325 
z
M 925 2138 
Q 869 1716 869 1456 
Q 869 1156 980 804 
Q 1091 453 1309 247 
Q 1469 100 1697 100 
Q 1969 100 2183 356 
Q 2397 613 2397 1088 
Q 2397 1622 2184 2012 
Q 1972 2403 1581 2403 
Q 1463 2403 1327 2353 
Q 1191 2303 925 2138 
z
" transform="scale(0.015625)"/>
     </defs>
     <use xlink:href="#TimesNewRomanPSMT-34"/>
     <use xlink:href="#TimesNewRomanPSMT-36" x="50"/>
    </g>
   </g>
   <g id="text_2">
    <!-- 28 -->
    <g style="fill: #808080" transform="translate(252.558389 133.96268)scale(0.14 -0.14)">
     <defs>
      <path id="TimesNewRomanPSMT-32" d="M 2934 816 
L 2638 0 
L 138 0 
L 138 116 
Q 1241 1122 1691 1759 
Q 2141 2397 2141 2925 
Q 2141 3328 1894 3587 
Q 1647 3847 1303 3847 
Q 991 3847 742 3664 
Q 494 3481 375 3128 
L 259 3128 
Q 338 3706 661 4015 
Q 984 4325 1469 4325 
Q 1984 4325 2329 3994 
Q 2675 3663 2675 3213 
Q 2675 2891 2525 2569 
Q 2294 2063 1775 1497 
Q 997 647 803 472 
L 1909 472 
Q 2247 472 2383 497 
Q 2519 522 2628 598 
Q 2738 675 2819 816 
L 2934 816 
z
" transform="scale(0.015625)"/>
      <path id="TimesNewRomanPSMT-38" d="M 1228 2134 
Q 725 2547 579 2797 
Q 434 3047 434 3316 
Q 434 3728 753 4026 
Q 1072 4325 1600 4325 
Q 2113 4325 2425 4047 
Q 2738 3769 2738 3413 
Q 2738 3175 2569 2928 
Q 2400 2681 1866 2347 
Q 2416 1922 2594 1678 
Q 2831 1359 2831 1006 
Q 2831 559 2490 242 
Q 2150 -75 1597 -75 
Q 994 -75 656 303 
Q 388 606 388 966 
Q 388 1247 577 1523 
Q 766 1800 1228 2134 
z
M 1719 2469 
Q 2094 2806 2194 3001 
Q 2294 3197 2294 3444 
Q 2294 3772 2109 3958 
Q 1925 4144 1606 4144 
Q 1288 4144 1088 3959 
Q 888 3775 888 3528 
Q 888 3366 970 3203 
Q 1053 3041 1206 2894 
L 1719 2469 
z
M 1375 2016 
Q 1116 1797 991 1539 
Q 866 1281 866 981 
Q 866 578 1086 336 
Q 1306 94 1647 94 
Q 1984 94 2187 284 
Q 2391 475 2391 747 
Q 2391 972 2272 1150 
Q 2050 1481 1375 2016 
z
" transform="scale(0.015625)"/>
     </defs>
     <use xlink:href="#TimesNewRomanPSMT-32"/>
     <use xlink:href="#TimesNewRomanPSMT-38" x="50"/>
    </g>
   </g>
   <g id="text_3">
    <!-- 60 -->
    <g style="fill: #808080" transform="translate(186.89442 118.975308)scale(0.14 -0.14)">
     <defs>
      <path id="TimesNewRomanPSMT-30" d="M 231 2094 
Q 231 2819 450 3342 
Q 669 3866 1031 4122 
Q 1313 4325 1613 4325 
Q 2100 4325 2488 3828 
Q 2972 3213 2972 2159 
Q 2972 1422 2759 906 
Q 2547 391 2217 158 
Q 1888 -75 1581 -75 
Q 975 -75 572 641 
Q 231 1244 231 2094 
z
M 844 2016 
Q 844 1141 1059 588 
Q 1238 122 1591 122 
Q 1759 122 1940 273 
Q 2122 425 2216 781 
Q 2359 1319 2359 2297 
Q 2359 3022 2209 3506 
Q 2097 3866 1919 4016 
Q 1791 4119 1609 4119 
Q 1397 4119 1231 3928 
Q 1006 3669 925 3112 
Q 844 2556 844 2016 
z
" transform="scale(0.015625)"/>
     </defs>
     <use xlink:href="#TimesNewRomanPSMT-36"/>
     <use xlink:href="#TimesNewRomanPSMT-30" x="50"/>
    </g>
   </g>
   <g id="text_4">
    <!-- 53 -->
    <g style="fill: #808080" transform="translate(134.236005 160.968992)scale(0.14 -0.14)">
     <defs>
      <path id="TimesNewRomanPSMT-35" d="M 2778 4238 
L 2534 3706 
L 1259 3706 
L 981 3138 
Q 1809 3016 2294 2522 
Q 2709 2097 2709 1522 
Q 2709 1188 2573 903 
Q 2438 619 2231 419 
Q 2025 219 1772 97 
Q 1413 -75 1034 -75 
Q 653 -75 479 54 
Q 306 184 306 341 
Q 306 428 378 495 
Q 450 563 559 563 
Q 641 563 702 538 
Q 763 513 909 409 
Q 1144 247 1384 247 
Q 1750 247 2026 523 
Q 2303 800 2303 1197 
Q 2303 1581 2056 1914 
Q 1809 2247 1375 2428 
Q 1034 2569 447 2591 
L 1259 4238 
L 2778 4238 
z
" transform="scale(0.015625)"/>
      <path id="TimesNewRomanPSMT-33" d="M 325 3431 
Q 506 3859 782 4092 
Q 1059 4325 1472 4325 
Q 1981 4325 2253 3994 
Q 2459 3747 2459 3466 
Q 2459 3003 1878 2509 
Q 2269 2356 2469 2072 
Q 2669 1788 2669 1403 
Q 2669 853 2319 450 
Q 1863 -75 997 -75 
Q 569 -75 414 31 
Q 259 138 259 259 
Q 259 350 332 419 
Q 406 488 509 488 
Q 588 488 669 463 
Q 722 447 909 348 
Q 1097 250 1169 231 
Q 1284 197 1416 197 
Q 1734 197 1970 444 
Q 2206 691 2206 1028 
Q 2206 1275 2097 1509 
Q 2016 1684 1919 1775 
Q 1784 1900 1550 2001 
Q 1316 2103 1072 2103 
L 972 2103 
L 972 2197 
Q 1219 2228 1467 2375 
Q 1716 2522 1828 2728 
Q 1941 2934 1941 3181 
Q 1941 3503 1739 3701 
Q 1538 3900 1238 3900 
Q 753 3900 428 3381 
L 325 3431 
z
" transform="scale(0.015625)"/>
     </defs>
     <use xlink:href="#TimesNewRomanPSMT-35"/>
     <use xlink:href="#TimesNewRomanPSMT-33" x="50"/>
    </g>
   </g>
   <g id="text_5">
    <!-- 20 -->
    <g style="fill: #808080" transform="translate(134.236005 228.321633)scale(0.14 -0.14)">
     <use xlink:href="#TimesNewRomanPSMT-32"/>
     <use xlink:href="#TimesNewRomanPSMT-30" x="50"/>
    </g>
   </g>
   <g id="text_6">
    <!-- 41 -->
    <g style="fill: #808080" transform="translate(186.89442 270.315317)scale(0.14 -0.14)">
     <defs>
      <path id="TimesNewRomanPSMT-31" d="M 750 3822 
L 1781 4325 
L 1884 4325 
L 1884 747 
Q 1884 391 1914 303 
Q 1944 216 2037 169 
Q 2131 122 2419 116 
L 2419 0 
L 825 0 
L 825 116 
Q 1125 122 1212 167 
Q 1300 213 1334 289 
Q 1369 366 1369 747 
L 1369 3034 
Q 1369 3497 1338 3628 
Q 1316 3728 1258 3775 
Q 1200 3822 1119 3822 
Q 1003 3822 797 3725 
L 750 3822 
z
" transform="scale(0.015625)"/>
     </defs>
     <use xlink:href="#TimesNewRomanPSMT-34"/>
     <use xlink:href="#TimesNewRomanPSMT-31" x="50"/>
    </g>
   </g>
   <g id="text_7">
    <!-- 39 -->
    <g style="fill: #808080" transform="translate(252.558389 255.327945)scale(0.14 -0.14)">
     <defs>
      <path id="TimesNewRomanPSMT-39" d="M 338 -88 
L 338 28 
Q 744 34 1094 217 
Q 1444 400 1770 856 
Q 2097 1313 2225 1859 
Q 1734 1544 1338 1544 
Q 891 1544 572 1889 
Q 253 2234 253 2806 
Q 253 3363 572 3797 
Q 956 4325 1575 4325 
Q 2097 4325 2469 3894 
Q 2925 3359 2925 2575 
Q 2925 1869 2578 1258 
Q 2231 647 1613 244 
Q 1109 -88 516 -88 
L 338 -88 
z
M 2275 2091 
Q 2331 2497 2331 2741 
Q 2331 3044 2228 3395 
Q 2125 3747 1936 3934 
Q 1747 4122 1506 4122 
Q 1228 4122 1018 3872 
Q 809 3622 809 3128 
Q 809 2469 1088 2097 
Q 1291 1828 1588 1828 
Q 1731 1828 1928 1897 
Q 2125 1966 2275 2091 
z
" transform="scale(0.015625)"/>
     </defs>
     <use xlink:href="#TimesNewRomanPSMT-33"/>
     <use xlink:href="#TimesNewRomanPSMT-39" x="50"/>
    </g>
   </g>
   <g id="text_8">
    <!-- 58 -->
    <g style="fill: #808080" transform="translate(300.559669 194.645312)scale(0.14 -0.14)">
     <use xlink:href="#TimesNewRomanPSMT-35"/>
     <use xlink:href="#TimesNewRomanPSMT-38" x="50"/>
    </g>
   </g>
   <g id="text_9">
    <!-- 36 -->
    <g style="fill: #808080" transform="translate(264.266321 119.281398)scale(0.14 -0.14)">
     <use xlink:href="#TimesNewRomanPSMT-33"/>
     <use xlink:href="#TimesNewRomanPSMT-36" x="50"/>
    </g>
   </g>
   <g id="text_10">
    <!-- 75 -->
    <g style="fill: #808080" transform="translate(182.715908 100.668048)scale(0.14 -0.14)">
     <defs>
      <path id="TimesNewRomanPSMT-37" d="M 644 4238 
L 2916 4238 
L 2916 4119 
L 1503 -88 
L 1153 -88 
L 2419 3728 
L 1253 3728 
Q 900 3728 750 3644 
Q 488 3500 328 3200 
L 238 3234 
L 644 4238 
z
" transform="scale(0.015625)"/>
     </defs>
     <use xlink:href="#TimesNewRomanPSMT-37"/>
     <use xlink:href="#TimesNewRomanPSMT-35" x="50"/>
    </g>
   </g>
   <g id="text_11">
    <!-- 67 -->
    <g style="fill: #808080" transform="translate(117.317554 152.821495)scale(0.14 -0.14)">
     <use xlink:href="#TimesNewRomanPSMT-36"/>
     <use xlink:href="#TimesNewRomanPSMT-37" x="50"/>
    </g>
   </g>
   <g id="text_12">
    <!-- 25 -->
    <g style="fill: #808080" transform="translate(117.317554 236.46913)scale(0.14 -0.14)">
     <use xlink:href="#TimesNewRomanPSMT-32"/>
     <use xlink:href="#TimesNewRomanPSMT-35" x="50"/>
    </g>
   </g>
   <g id="text_13">
    <!-- 51 -->
    <g style="fill: #808080" transform="translate(182.715908 288.622577)scale(0.14 -0.14)">
     <use xlink:href="#TimesNewRomanPSMT-35"/>
     <use xlink:href="#TimesNewRomanPSMT-31" x="50"/>
    </g>
   </g>
   <g id="text_14">
    <!-- 49 -->
    <g style="fill: #808080" transform="translate(264.266321 270.009227)scale(0.14 -0.14)">
     <use xlink:href="#TimesNewRomanPSMT-34"/>
     <use xlink:href="#TimesNewRomanPSMT-39" x="50"/>
    </g>
   </g>
   <g id="text_15">
    <!-- 70 -->
    <g style="fill: #808080" transform="translate(319.337734 194.645312)scale(0.14 -0.14)">
     <use xlink:href="#TimesNewRomanPSMT-37"/>
     <use xlink:href="#TimesNewRomanPSMT-30" x="50"/>
    </g>
   </g>
   <g id="text_16">
    <!-- 43 -->
    <g style="fill: #808080" transform="translate(275.974253 104.600116)scale(0.14 -0.14)">
     <use xlink:href="#TimesNewRomanPSMT-34"/>
     <use xlink:href="#TimesNewRomanPSMT-33" x="50"/>
    </g>
   </g>
   <g id="text_17">
    <!-- 90 -->
    <g style="fill: #808080" transform="translate(178.537395 82.360789)scale(0.14 -0.14)">
     <use xlink:href="#TimesNewRomanPSMT-39"/>
     <use xlink:href="#TimesNewRomanPSMT-30" x="50"/>
    </g>
   </g>
   <g id="text_18">
    <!-- 80 -->
    <g style="fill: #808080" transform="translate(100.399102 144.673999)scale(0.14 -0.14)">
     <use xlink:href="#TimesNewRomanPSMT-38"/>
     <use xlink:href="#TimesNewRomanPSMT-30" x="50"/>
    </g>
   </g>
   <g id="text_19">
    <!-- 30 -->
    <g style="fill: #808080" transform="translate(100.399102 244.616626)scale(0.14 -0.14)">
     <use xlink:href="#TimesNewRomanPSMT-33"/>
     <use xlink:href="#TimesNewRomanPSMT-30" x="50"/>
    </g>
   </g>
   <g id="text_20">
    <!-- 61 -->
    <g style="fill: #808080" transform="translate(178.537395 306.929836)scale(0.14 -0.14)">
     <use xlink:href="#TimesNewRomanPSMT-36"/>
     <use xlink:href="#TimesNewRomanPSMT-31" x="50"/>
    </g>
   </g>
   <g id="text_21">
    <!-- 59 -->
    <g style="fill: #808080" transform="translate(275.974253 284.690509)scale(0.14 -0.14)">
     <use xlink:href="#TimesNewRomanPSMT-35"/>
     <use xlink:href="#TimesNewRomanPSMT-39" x="50"/>
    </g>
   </g>
   <g id="text_22">
    <!-- MMLU -->
    <g transform="translate(345.869632 201.003281)scale(0.14 -0.14)">
     <defs>
      <path id="TimesNewRomanPSMT-4d" d="M 2619 0 
L 981 3566 
L 981 734 
Q 981 344 1066 247 
Q 1181 116 1431 116 
L 1581 116 
L 1581 0 
L 106 0 
L 106 116 
L 256 116 
Q 525 116 638 278 
Q 706 378 706 734 
L 706 3503 
Q 706 3784 644 3909 
Q 600 4000 483 4061 
Q 366 4122 106 4122 
L 106 4238 
L 1306 4238 
L 2844 922 
L 4356 4238 
L 5556 4238 
L 5556 4122 
L 5409 4122 
Q 5138 4122 5025 3959 
Q 4956 3859 4956 3503 
L 4956 734 
Q 4956 344 5044 247 
Q 5159 116 5409 116 
L 5556 116 
L 5556 0 
L 3756 0 
L 3756 116 
L 3906 116 
Q 4178 116 4288 278 
Q 4356 378 4356 734 
L 4356 3566 
L 2722 0 
L 2619 0 
z
" transform="scale(0.015625)"/>
      <path id="TimesNewRomanPSMT-4c" d="M 3669 1172 
L 3772 1150 
L 3409 0 
L 128 0 
L 128 116 
L 288 116 
Q 556 116 672 291 
Q 738 391 738 753 
L 738 3488 
Q 738 3884 650 3984 
Q 528 4122 288 4122 
L 128 4122 
L 128 4238 
L 2047 4238 
L 2047 4122 
Q 1709 4125 1573 4059 
Q 1438 3994 1388 3894 
Q 1338 3794 1338 3416 
L 1338 753 
Q 1338 494 1388 397 
Q 1425 331 1503 300 
Q 1581 269 1991 269 
L 2300 269 
Q 2788 269 2984 341 
Q 3181 413 3343 595 
Q 3506 778 3669 1172 
z
" transform="scale(0.015625)"/>
      <path id="TimesNewRomanPSMT-55" d="M 3053 4122 
L 3053 4238 
L 4553 4238 
L 4553 4122 
L 4394 4122 
Q 4144 4122 4009 3913 
Q 3944 3816 3944 3463 
L 3944 1744 
Q 3944 1106 3817 754 
Q 3691 403 3320 151 
Q 2950 -100 2313 -100 
Q 1619 -100 1259 140 
Q 900 381 750 788 
Q 650 1066 650 1831 
L 650 3488 
Q 650 3878 542 4000 
Q 434 4122 194 4122 
L 34 4122 
L 34 4238 
L 1866 4238 
L 1866 4122 
L 1703 4122 
Q 1441 4122 1328 3956 
Q 1250 3844 1250 3488 
L 1250 1641 
Q 1250 1394 1295 1075 
Q 1341 756 1459 578 
Q 1578 400 1801 284 
Q 2025 169 2350 169 
Q 2766 169 3094 350 
Q 3422 531 3542 814 
Q 3663 1097 3663 1772 
L 3663 3488 
Q 3663 3884 3575 3984 
Q 3453 4122 3213 4122 
L 3053 4122 
z
" transform="scale(0.015625)"/>
     </defs>
     <use xlink:href="#TimesNewRomanPSMT-4d"/>
     <use xlink:href="#TimesNewRomanPSMT-4d" x="88.916016"/>
     <use xlink:href="#TimesNewRomanPSMT-4c" x="177.832031"/>
     <use xlink:href="#TimesNewRomanPSMT-55" x="238.916016"/>
    </g>
   </g>
   <g id="text_23">
    <!-- MMLU-pro -->
    <g transform="translate(275.290296 78.659264)scale(0.14 -0.14)">
     <defs>
      <path id="TimesNewRomanPSMT-2d" d="M 259 1672 
L 1875 1672 
L 1875 1200 
L 259 1200 
L 259 1672 
z
" transform="scale(0.015625)"/>
      <path id="TimesNewRomanPSMT-70" d="M -6 2578 
L 875 2934 
L 994 2934 
L 994 2266 
Q 1216 2644 1439 2795 
Q 1663 2947 1909 2947 
Q 2341 2947 2628 2609 
Q 2981 2197 2981 1534 
Q 2981 794 2556 309 
Q 2206 -88 1675 -88 
Q 1444 -88 1275 -22 
Q 1150 25 994 166 
L 994 -706 
Q 994 -1000 1030 -1079 
Q 1066 -1159 1155 -1206 
Q 1244 -1253 1478 -1253 
L 1478 -1369 
L -22 -1369 
L -22 -1253 
L 56 -1253 
Q 228 -1256 350 -1188 
Q 409 -1153 442 -1076 
Q 475 -1000 475 -688 
L 475 2019 
Q 475 2297 450 2372 
Q 425 2447 370 2484 
Q 316 2522 222 2522 
Q 147 2522 31 2478 
L -6 2578 
z
M 994 2081 
L 994 1013 
Q 994 666 1022 556 
Q 1066 375 1236 237 
Q 1406 100 1666 100 
Q 1978 100 2172 344 
Q 2425 663 2425 1241 
Q 2425 1897 2138 2250 
Q 1938 2494 1663 2494 
Q 1513 2494 1366 2419 
Q 1253 2363 994 2081 
z
" transform="scale(0.015625)"/>
      <path id="TimesNewRomanPSMT-72" d="M 1038 2947 
L 1038 2303 
Q 1397 2947 1775 2947 
Q 1947 2947 2059 2842 
Q 2172 2738 2172 2600 
Q 2172 2478 2090 2393 
Q 2009 2309 1897 2309 
Q 1788 2309 1652 2417 
Q 1516 2525 1450 2525 
Q 1394 2525 1328 2463 
Q 1188 2334 1038 2041 
L 1038 669 
Q 1038 431 1097 309 
Q 1138 225 1241 169 
Q 1344 113 1538 113 
L 1538 0 
L 72 0 
L 72 113 
Q 291 113 397 181 
Q 475 231 506 341 
Q 522 394 522 644 
L 522 1753 
Q 522 2253 501 2348 
Q 481 2444 426 2487 
Q 372 2531 291 2531 
Q 194 2531 72 2484 
L 41 2597 
L 906 2947 
L 1038 2947 
z
" transform="scale(0.015625)"/>
      <path id="TimesNewRomanPSMT-6f" d="M 1600 2947 
Q 2250 2947 2644 2453 
Q 2978 2031 2978 1484 
Q 2978 1100 2793 706 
Q 2609 313 2286 112 
Q 1963 -88 1566 -88 
Q 919 -88 538 428 
Q 216 863 216 1403 
Q 216 1797 411 2186 
Q 606 2575 925 2761 
Q 1244 2947 1600 2947 
z
M 1503 2744 
Q 1338 2744 1170 2645 
Q 1003 2547 900 2300 
Q 797 2053 797 1666 
Q 797 1041 1045 587 
Q 1294 134 1700 134 
Q 2003 134 2200 384 
Q 2397 634 2397 1244 
Q 2397 2006 2069 2444 
Q 1847 2744 1503 2744 
z
" transform="scale(0.015625)"/>
     </defs>
     <use xlink:href="#TimesNewRomanPSMT-4d"/>
     <use xlink:href="#TimesNewRomanPSMT-4d" x="88.916016"/>
     <use xlink:href="#TimesNewRomanPSMT-4c" x="177.832031"/>
     <use xlink:href="#TimesNewRomanPSMT-55" x="238.916016"/>
     <use xlink:href="#TimesNewRomanPSMT-2d" x="311.132812"/>
     <use xlink:href="#TimesNewRomanPSMT-70" x="344.433594"/>
     <use xlink:href="#TimesNewRomanPSMT-72" x="394.433594"/>
     <use xlink:href="#TimesNewRomanPSMT-6f" x="427.734375"/>
    </g>
   </g>
   <g id="text_24">
    <!-- ARC-C -->
    <g transform="translate(154.950918 48.442788)scale(0.14 -0.14)">
     <defs>
      <path id="TimesNewRomanPSMT-41" d="M 2928 1419 
L 1288 1419 
L 1000 750 
Q 894 503 894 381 
Q 894 284 986 211 
Q 1078 138 1384 116 
L 1384 0 
L 50 0 
L 50 116 
Q 316 163 394 238 
Q 553 388 747 847 
L 2238 4334 
L 2347 4334 
L 3822 809 
Q 4000 384 4145 257 
Q 4291 131 4550 116 
L 4550 0 
L 2878 0 
L 2878 116 
Q 3131 128 3220 200 
Q 3309 272 3309 375 
Q 3309 513 3184 809 
L 2928 1419 
z
M 2841 1650 
L 2122 3363 
L 1384 1650 
L 2841 1650 
z
" transform="scale(0.015625)"/>
      <path id="TimesNewRomanPSMT-52" d="M 4325 0 
L 3194 0 
L 1759 1981 
Q 1600 1975 1500 1975 
Q 1459 1975 1412 1976 
Q 1366 1978 1316 1981 
L 1316 750 
Q 1316 350 1403 253 
Q 1522 116 1759 116 
L 1925 116 
L 1925 0 
L 109 0 
L 109 116 
L 269 116 
Q 538 116 653 291 
Q 719 388 719 750 
L 719 3488 
Q 719 3888 631 3984 
Q 509 4122 269 4122 
L 109 4122 
L 109 4238 
L 1653 4238 
Q 2328 4238 2648 4139 
Q 2969 4041 3192 3777 
Q 3416 3513 3416 3147 
Q 3416 2756 3161 2468 
Q 2906 2181 2372 2063 
L 3247 847 
Q 3547 428 3762 290 
Q 3978 153 4325 116 
L 4325 0 
z
M 1316 2178 
Q 1375 2178 1419 2176 
Q 1463 2175 1491 2175 
Q 2097 2175 2405 2437 
Q 2713 2700 2713 3106 
Q 2713 3503 2464 3751 
Q 2216 4000 1806 4000 
Q 1625 4000 1316 3941 
L 1316 2178 
z
" transform="scale(0.015625)"/>
      <path id="TimesNewRomanPSMT-43" d="M 3853 4334 
L 3950 2894 
L 3853 2894 
Q 3659 3541 3300 3825 
Q 2941 4109 2438 4109 
Q 2016 4109 1675 3895 
Q 1334 3681 1139 3212 
Q 944 2744 944 2047 
Q 944 1472 1128 1050 
Q 1313 628 1683 403 
Q 2053 178 2528 178 
Q 2941 178 3256 354 
Q 3572 531 3950 1056 
L 4047 994 
Q 3728 428 3303 165 
Q 2878 -97 2294 -97 
Q 1241 -97 663 684 
Q 231 1266 231 2053 
Q 231 2688 515 3219 
Q 800 3750 1298 4042 
Q 1797 4334 2388 4334 
Q 2847 4334 3294 4109 
Q 3425 4041 3481 4041 
Q 3566 4041 3628 4100 
Q 3709 4184 3744 4334 
L 3853 4334 
z
" transform="scale(0.015625)"/>
     </defs>
     <use xlink:href="#TimesNewRomanPSMT-41"/>
     <use xlink:href="#TimesNewRomanPSMT-52" x="72.216797"/>
     <use xlink:href="#TimesNewRomanPSMT-43" x="138.916016"/>
     <use xlink:href="#TimesNewRomanPSMT-2d" x="205.615234"/>
     <use xlink:href="#TimesNewRomanPSMT-43" x="238.916016"/>
    </g>
   </g>
   <g id="text_25">
    <!-- GSM8K -->
    <g transform="translate(46.450696 133.107474)scale(0.14 -0.14)">
     <defs>
      <path id="TimesNewRomanPSMT-47" d="M 3928 4334 
L 4038 2997 
L 3928 2997 
Q 3763 3497 3500 3750 
Q 3122 4116 2528 4116 
Q 1719 4116 1297 3475 
Q 944 2934 944 2188 
Q 944 1581 1178 1081 
Q 1413 581 1792 348 
Q 2172 116 2572 116 
Q 2806 116 3025 175 
Q 3244 234 3447 350 
L 3447 1575 
Q 3447 1894 3398 1992 
Q 3350 2091 3248 2142 
Q 3147 2194 2891 2194 
L 2891 2313 
L 4531 2313 
L 4531 2194 
L 4453 2194 
Q 4209 2194 4119 2031 
Q 4056 1916 4056 1575 
L 4056 278 
Q 3697 84 3347 -6 
Q 2997 -97 2569 -97 
Q 1341 -97 703 691 
Q 225 1281 225 2053 
Q 225 2613 494 3125 
Q 813 3734 1369 4063 
Q 1834 4334 2469 4334 
Q 2700 4334 2889 4296 
Q 3078 4259 3425 4131 
Q 3600 4066 3659 4066 
Q 3719 4066 3761 4120 
Q 3803 4175 3813 4334 
L 3928 4334 
z
" transform="scale(0.015625)"/>
      <path id="TimesNewRomanPSMT-53" d="M 2934 4334 
L 2934 2869 
L 2819 2869 
Q 2763 3291 2617 3541 
Q 2472 3791 2203 3937 
Q 1934 4084 1647 4084 
Q 1322 4084 1109 3886 
Q 897 3688 897 3434 
Q 897 3241 1031 3081 
Q 1225 2847 1953 2456 
Q 2547 2138 2764 1967 
Q 2981 1797 3098 1565 
Q 3216 1334 3216 1081 
Q 3216 600 2842 251 
Q 2469 -97 1881 -97 
Q 1697 -97 1534 -69 
Q 1438 -53 1133 45 
Q 828 144 747 144 
Q 669 144 623 97 
Q 578 50 556 -97 
L 441 -97 
L 441 1356 
L 556 1356 
Q 638 900 775 673 
Q 913 447 1195 297 
Q 1478 147 1816 147 
Q 2206 147 2432 353 
Q 2659 559 2659 841 
Q 2659 997 2573 1156 
Q 2488 1316 2306 1453 
Q 2184 1547 1640 1851 
Q 1097 2156 867 2337 
Q 638 2519 519 2737 
Q 400 2956 400 3219 
Q 400 3675 750 4004 
Q 1100 4334 1641 4334 
Q 1978 4334 2356 4169 
Q 2531 4091 2603 4091 
Q 2684 4091 2736 4139 
Q 2788 4188 2819 4334 
L 2934 4334 
z
" transform="scale(0.015625)"/>
      <path id="TimesNewRomanPSMT-4b" d="M 1913 2350 
L 3475 797 
Q 3859 413 4131 273 
Q 4403 134 4675 116 
L 4675 0 
L 2659 0 
L 2659 116 
Q 2841 116 2920 177 
Q 3000 238 3000 313 
Q 3000 388 2970 447 
Q 2941 506 2775 669 
L 1313 2116 
L 1313 750 
Q 1313 428 1353 325 
Q 1384 247 1484 191 
Q 1619 116 1769 116 
L 1913 116 
L 1913 0 
L 106 0 
L 106 116 
L 256 116 
Q 519 116 638 269 
Q 713 369 713 750 
L 713 3488 
Q 713 3809 672 3916 
Q 641 3991 544 4047 
Q 406 4122 256 4122 
L 106 4122 
L 106 4238 
L 1913 4238 
L 1913 4122 
L 1769 4122 
Q 1622 4122 1484 4050 
Q 1388 4000 1350 3900 
Q 1313 3800 1313 3488 
L 1313 2191 
Q 1375 2250 1741 2588 
Q 2669 3438 2863 3722 
Q 2947 3847 2947 3941 
Q 2947 4013 2881 4067 
Q 2816 4122 2659 4122 
L 2563 4122 
L 2563 4238 
L 4119 4238 
L 4119 4122 
Q 3981 4119 3868 4084 
Q 3756 4050 3593 3951 
Q 3431 3853 3194 3634 
Q 3125 3572 2559 2994 
L 1913 2350 
z
" transform="scale(0.015625)"/>
     </defs>
     <use xlink:href="#TimesNewRomanPSMT-47"/>
     <use xlink:href="#TimesNewRomanPSMT-53" x="72.216797"/>
     <use xlink:href="#TimesNewRomanPSMT-4d" x="127.832031"/>
     <use xlink:href="#TimesNewRomanPSMT-38" x="216.748047"/>
     <use xlink:href="#TimesNewRomanPSMT-4b" x="266.748047"/>
    </g>
   </g>
   <g id="text_26">
    <!-- Math -->
    <g transform="translate(55.401946 268.899088)scale(0.14 -0.14)">
     <defs>
      <path id="TimesNewRomanPSMT-61" d="M 1822 413 
Q 1381 72 1269 19 
Q 1100 -59 909 -59 
Q 613 -59 420 144 
Q 228 347 228 678 
Q 228 888 322 1041 
Q 450 1253 767 1440 
Q 1084 1628 1822 1897 
L 1822 2009 
Q 1822 2438 1686 2597 
Q 1550 2756 1291 2756 
Q 1094 2756 978 2650 
Q 859 2544 859 2406 
L 866 2225 
Q 866 2081 792 2003 
Q 719 1925 600 1925 
Q 484 1925 411 2006 
Q 338 2088 338 2228 
Q 338 2497 613 2722 
Q 888 2947 1384 2947 
Q 1766 2947 2009 2819 
Q 2194 2722 2281 2516 
Q 2338 2381 2338 1966 
L 2338 994 
Q 2338 584 2353 492 
Q 2369 400 2405 369 
Q 2441 338 2488 338 
Q 2538 338 2575 359 
Q 2641 400 2828 588 
L 2828 413 
Q 2478 -56 2159 -56 
Q 2006 -56 1915 50 
Q 1825 156 1822 413 
z
M 1822 616 
L 1822 1706 
Q 1350 1519 1213 1441 
Q 966 1303 859 1153 
Q 753 1003 753 825 
Q 753 600 887 451 
Q 1022 303 1197 303 
Q 1434 303 1822 616 
z
" transform="scale(0.015625)"/>
      <path id="TimesNewRomanPSMT-74" d="M 1031 3803 
L 1031 2863 
L 1700 2863 
L 1700 2644 
L 1031 2644 
L 1031 788 
Q 1031 509 1111 412 
Q 1191 316 1316 316 
Q 1419 316 1516 380 
Q 1613 444 1666 569 
L 1788 569 
Q 1678 263 1478 108 
Q 1278 -47 1066 -47 
Q 922 -47 784 33 
Q 647 113 581 261 
Q 516 409 516 719 
L 516 2644 
L 63 2644 
L 63 2747 
Q 234 2816 414 2980 
Q 594 3144 734 3369 
Q 806 3488 934 3803 
L 1031 3803 
z
" transform="scale(0.015625)"/>
      <path id="TimesNewRomanPSMT-68" d="M 1041 4444 
L 1041 2350 
Q 1388 2731 1591 2839 
Q 1794 2947 1997 2947 
Q 2241 2947 2416 2812 
Q 2591 2678 2675 2391 
Q 2734 2191 2734 1659 
L 2734 647 
Q 2734 375 2778 275 
Q 2809 200 2884 156 
Q 2959 113 3159 113 
L 3159 0 
L 1753 0 
L 1753 113 
L 1819 113 
Q 2019 113 2097 173 
Q 2175 234 2206 353 
Q 2216 403 2216 647 
L 2216 1659 
Q 2216 2128 2167 2275 
Q 2119 2422 2012 2495 
Q 1906 2569 1756 2569 
Q 1603 2569 1437 2487 
Q 1272 2406 1041 2159 
L 1041 647 
Q 1041 353 1073 281 
Q 1106 209 1195 161 
Q 1284 113 1503 113 
L 1503 0 
L 84 0 
L 84 113 
Q 275 113 384 172 
Q 447 203 484 290 
Q 522 378 522 647 
L 522 3238 
Q 522 3728 498 3840 
Q 475 3953 426 3993 
Q 378 4034 297 4034 
Q 231 4034 84 3984 
L 41 4094 
L 897 4444 
L 1041 4444 
z
" transform="scale(0.015625)"/>
     </defs>
     <use xlink:href="#TimesNewRomanPSMT-4d"/>
     <use xlink:href="#TimesNewRomanPSMT-61" x="88.916016"/>
     <use xlink:href="#TimesNewRomanPSMT-74" x="133.300781"/>
     <use xlink:href="#TimesNewRomanPSMT-68" x="161.083984"/>
    </g>
   </g>
   <g id="text_27">
    <!-- HumanEval -->
    <g transform="translate(142.909824 353.563775)scale(0.14 -0.14)">
     <defs>
      <path id="TimesNewRomanPSMT-48" d="M 1316 2272 
L 3284 2272 
L 3284 3484 
Q 3284 3809 3244 3913 
Q 3213 3991 3113 4047 
Q 2978 4122 2828 4122 
L 2678 4122 
L 2678 4238 
L 4491 4238 
L 4491 4122 
L 4341 4122 
Q 4191 4122 4056 4050 
Q 3956 4000 3920 3898 
Q 3884 3797 3884 3484 
L 3884 750 
Q 3884 428 3925 325 
Q 3956 247 4053 191 
Q 4191 116 4341 116 
L 4491 116 
L 4491 0 
L 2678 0 
L 2678 116 
L 2828 116 
Q 3088 116 3206 269 
Q 3284 369 3284 750 
L 3284 2041 
L 1316 2041 
L 1316 750 
Q 1316 428 1356 325 
Q 1388 247 1488 191 
Q 1622 116 1772 116 
L 1925 116 
L 1925 0 
L 109 0 
L 109 116 
L 259 116 
Q 522 116 641 269 
Q 716 369 716 750 
L 716 3484 
Q 716 3809 675 3913 
Q 644 3991 547 4047 
Q 409 4122 259 4122 
L 109 4122 
L 109 4238 
L 1925 4238 
L 1925 4122 
L 1772 4122 
Q 1622 4122 1488 4050 
Q 1391 4000 1353 3898 
Q 1316 3797 1316 3484 
L 1316 2272 
z
" transform="scale(0.015625)"/>
      <path id="TimesNewRomanPSMT-75" d="M 2709 2863 
L 2709 1128 
Q 2709 631 2732 520 
Q 2756 409 2807 365 
Q 2859 322 2928 322 
Q 3025 322 3147 375 
L 3191 266 
L 2334 -88 
L 2194 -88 
L 2194 519 
Q 1825 119 1631 15 
Q 1438 -88 1222 -88 
Q 981 -88 804 51 
Q 628 191 559 409 
Q 491 628 491 1028 
L 491 2306 
Q 491 2509 447 2587 
Q 403 2666 317 2708 
Q 231 2750 6 2747 
L 6 2863 
L 1009 2863 
L 1009 947 
Q 1009 547 1148 422 
Q 1288 297 1484 297 
Q 1619 297 1789 381 
Q 1959 466 2194 703 
L 2194 2325 
Q 2194 2569 2105 2655 
Q 2016 2741 1734 2747 
L 1734 2863 
L 2709 2863 
z
" transform="scale(0.015625)"/>
      <path id="TimesNewRomanPSMT-6d" d="M 1050 2338 
Q 1363 2650 1419 2697 
Q 1559 2816 1721 2881 
Q 1884 2947 2044 2947 
Q 2313 2947 2506 2790 
Q 2700 2634 2766 2338 
Q 3088 2713 3309 2830 
Q 3531 2947 3766 2947 
Q 3994 2947 4170 2830 
Q 4347 2713 4450 2447 
Q 4519 2266 4519 1878 
L 4519 647 
Q 4519 378 4559 278 
Q 4591 209 4675 161 
Q 4759 113 4950 113 
L 4950 0 
L 3538 0 
L 3538 113 
L 3597 113 
Q 3781 113 3884 184 
Q 3956 234 3988 344 
Q 4000 397 4000 647 
L 4000 1878 
Q 4000 2228 3916 2372 
Q 3794 2572 3525 2572 
Q 3359 2572 3192 2489 
Q 3025 2406 2788 2181 
L 2781 2147 
L 2788 2013 
L 2788 647 
Q 2788 353 2820 281 
Q 2853 209 2943 161 
Q 3034 113 3253 113 
L 3253 0 
L 1806 0 
L 1806 113 
Q 2044 113 2133 169 
Q 2222 225 2256 338 
Q 2272 391 2272 647 
L 2272 1878 
Q 2272 2228 2169 2381 
Q 2031 2581 1784 2581 
Q 1616 2581 1450 2491 
Q 1191 2353 1050 2181 
L 1050 647 
Q 1050 366 1089 281 
Q 1128 197 1204 155 
Q 1281 113 1516 113 
L 1516 0 
L 100 0 
L 100 113 
Q 297 113 375 155 
Q 453 197 493 289 
Q 534 381 534 647 
L 534 1741 
Q 534 2213 506 2350 
Q 484 2453 437 2492 
Q 391 2531 309 2531 
Q 222 2531 100 2484 
L 53 2597 
L 916 2947 
L 1050 2947 
L 1050 2338 
z
" transform="scale(0.015625)"/>
      <path id="TimesNewRomanPSMT-6e" d="M 1034 2341 
Q 1538 2947 1994 2947 
Q 2228 2947 2397 2830 
Q 2566 2713 2666 2444 
Q 2734 2256 2734 1869 
L 2734 647 
Q 2734 375 2778 278 
Q 2813 200 2889 156 
Q 2966 113 3172 113 
L 3172 0 
L 1756 0 
L 1756 113 
L 1816 113 
Q 2016 113 2095 173 
Q 2175 234 2206 353 
Q 2219 400 2219 647 
L 2219 1819 
Q 2219 2209 2117 2386 
Q 2016 2563 1775 2563 
Q 1403 2563 1034 2156 
L 1034 647 
Q 1034 356 1069 288 
Q 1113 197 1189 155 
Q 1266 113 1500 113 
L 1500 0 
L 84 0 
L 84 113 
L 147 113 
Q 366 113 442 223 
Q 519 334 519 647 
L 519 1709 
Q 519 2225 495 2337 
Q 472 2450 423 2490 
Q 375 2531 294 2531 
Q 206 2531 84 2484 
L 38 2597 
L 900 2947 
L 1034 2947 
L 1034 2341 
z
" transform="scale(0.015625)"/>
      <path id="TimesNewRomanPSMT-45" d="M 1338 4006 
L 1338 2331 
L 2269 2331 
Q 2631 2331 2753 2441 
Q 2916 2584 2934 2947 
L 3050 2947 
L 3050 1472 
L 2934 1472 
Q 2891 1781 2847 1869 
Q 2791 1978 2662 2040 
Q 2534 2103 2269 2103 
L 1338 2103 
L 1338 706 
Q 1338 425 1363 364 
Q 1388 303 1450 267 
Q 1513 231 1688 231 
L 2406 231 
Q 2766 231 2928 281 
Q 3091 331 3241 478 
Q 3434 672 3638 1063 
L 3763 1063 
L 3397 0 
L 131 0 
L 131 116 
L 281 116 
Q 431 116 566 188 
Q 666 238 702 338 
Q 738 438 738 747 
L 738 3500 
Q 738 3903 656 3997 
Q 544 4122 281 4122 
L 131 4122 
L 131 4238 
L 3397 4238 
L 3444 3309 
L 3322 3309 
Q 3256 3644 3176 3769 
Q 3097 3894 2941 3959 
Q 2816 4006 2500 4006 
L 1338 4006 
z
" transform="scale(0.015625)"/>
      <path id="TimesNewRomanPSMT-76" d="M 53 2863 
L 1400 2863 
L 1400 2747 
L 1313 2747 
Q 1191 2747 1127 2687 
Q 1063 2628 1063 2528 
Q 1063 2419 1128 2269 
L 1794 688 
L 2463 2328 
Q 2534 2503 2534 2594 
Q 2534 2638 2509 2666 
Q 2475 2713 2422 2730 
Q 2369 2747 2206 2747 
L 2206 2863 
L 3141 2863 
L 3141 2747 
Q 2978 2734 2916 2681 
Q 2806 2588 2719 2369 
L 1703 -88 
L 1575 -88 
L 553 2328 
Q 484 2497 421 2570 
Q 359 2644 263 2694 
Q 209 2722 53 2747 
L 53 2863 
z
" transform="scale(0.015625)"/>
      <path id="TimesNewRomanPSMT-6c" d="M 1184 4444 
L 1184 647 
Q 1184 378 1223 290 
Q 1263 203 1344 158 
Q 1425 113 1647 113 
L 1647 0 
L 244 0 
L 244 113 
Q 441 113 512 153 
Q 584 194 625 287 
Q 666 381 666 647 
L 666 3247 
Q 666 3731 644 3842 
Q 622 3953 573 3993 
Q 525 4034 450 4034 
Q 369 4034 244 3984 
L 191 4094 
L 1044 4444 
L 1184 4444 
z
" transform="scale(0.015625)"/>
     </defs>
     <use xlink:href="#TimesNewRomanPSMT-48"/>
     <use xlink:href="#TimesNewRomanPSMT-75" x="72.216797"/>
     <use xlink:href="#TimesNewRomanPSMT-6d" x="122.216797"/>
     <use xlink:href="#TimesNewRomanPSMT-61" x="200"/>
     <use xlink:href="#TimesNewRomanPSMT-6e" x="244.384766"/>
     <use xlink:href="#TimesNewRomanPSMT-45" x="294.384766"/>
     <use xlink:href="#TimesNewRomanPSMT-76" x="355.46875"/>
     <use xlink:href="#TimesNewRomanPSMT-61" x="405.46875"/>
     <use xlink:href="#TimesNewRomanPSMT-6c" x="449.853516"/>
    </g>
   </g>
   <g id="text_28">
    <!-- MBPP -->
    <g transform="translate(290.05264 323.347298)scale(0.14 -0.14)">
     <defs>
      <path id="TimesNewRomanPSMT-42" d="M 2956 2163 
Q 3397 2069 3616 1863 
Q 3919 1575 3919 1159 
Q 3919 844 3719 555 
Q 3519 266 3170 133 
Q 2822 0 2106 0 
L 106 0 
L 106 116 
L 266 116 
Q 531 116 647 284 
Q 719 394 719 750 
L 719 3488 
Q 719 3881 628 3984 
Q 506 4122 266 4122 
L 106 4122 
L 106 4238 
L 1938 4238 
Q 2450 4238 2759 4163 
Q 3228 4050 3475 3764 
Q 3722 3478 3722 3106 
Q 3722 2788 3528 2536 
Q 3334 2284 2956 2163 
z
M 1319 2331 
Q 1434 2309 1582 2298 
Q 1731 2288 1909 2288 
Q 2366 2288 2595 2386 
Q 2825 2484 2947 2687 
Q 3069 2891 3069 3131 
Q 3069 3503 2766 3765 
Q 2463 4028 1881 4028 
Q 1569 4028 1319 3959 
L 1319 2331 
z
M 1319 306 
Q 1681 222 2034 222 
Q 2600 222 2897 476 
Q 3194 731 3194 1106 
Q 3194 1353 3059 1581 
Q 2925 1809 2622 1940 
Q 2319 2072 1872 2072 
Q 1678 2072 1540 2065 
Q 1403 2059 1319 2044 
L 1319 306 
z
" transform="scale(0.015625)"/>
      <path id="TimesNewRomanPSMT-50" d="M 1313 1984 
L 1313 750 
Q 1313 350 1400 253 
Q 1519 116 1759 116 
L 1922 116 
L 1922 0 
L 106 0 
L 106 116 
L 266 116 
Q 534 116 650 291 
Q 713 388 713 750 
L 713 3488 
Q 713 3888 628 3984 
Q 506 4122 266 4122 
L 106 4122 
L 106 4238 
L 1659 4238 
Q 2228 4238 2556 4120 
Q 2884 4003 3109 3725 
Q 3334 3447 3334 3066 
Q 3334 2547 2992 2222 
Q 2650 1897 2025 1897 
Q 1872 1897 1694 1919 
Q 1516 1941 1313 1984 
z
M 1313 2163 
Q 1478 2131 1606 2115 
Q 1734 2100 1825 2100 
Q 2150 2100 2386 2351 
Q 2622 2603 2622 3003 
Q 2622 3278 2509 3514 
Q 2397 3750 2190 3867 
Q 1984 3984 1722 3984 
Q 1563 3984 1313 3925 
L 1313 2163 
z
" transform="scale(0.015625)"/>
     </defs>
     <use xlink:href="#TimesNewRomanPSMT-4d"/>
     <use xlink:href="#TimesNewRomanPSMT-42" x="88.916016"/>
     <use xlink:href="#TimesNewRomanPSMT-50" x="155.615234"/>
     <use xlink:href="#TimesNewRomanPSMT-50" x="211.230469"/>
    </g>
   </g>
   <g id="patch_6">
    <path d="M 405.013192 189.945087 
Q 405.08436 192.791228 405.099633 193.402 
" style="fill: none; stroke: #000000; stroke-width: 2; stroke-linecap: round"/>
    <path d="M 406.999018 189.353255 
L 405.099633 193.402 
L 403.000268 189.453244 
" style="fill: none; stroke: #000000; stroke-width: 2; stroke-linecap: round"/>
   </g>
   <g id="patch_7">
    <path d="M 175.532444 6.940297 
Q 172.741825 7.504239 172.142969 7.625259 
" style="fill: none; stroke: #000000; stroke-width: 2; stroke-linecap: round"/>
    <path d="M 176.459873 8.793308 
L 172.142969 7.625259 
L 175.66755 4.872565 
" style="fill: none; stroke: #000000; stroke-width: 2; stroke-linecap: round"/>
   </g>
   <g id="text_29">
    <!-- General Tasks -->
    <g transform="translate(298.250387 15.811646)rotate(-321.428571)scale(0.16 -0.16)">
     <defs>
      <path id="TimesNewRomanPSMT-65" d="M 681 1784 
Q 678 1147 991 784 
Q 1303 422 1725 422 
Q 2006 422 2214 576 
Q 2422 731 2563 1106 
L 2659 1044 
Q 2594 616 2278 264 
Q 1963 -88 1488 -88 
Q 972 -88 605 314 
Q 238 716 238 1394 
Q 238 2128 614 2539 
Q 991 2950 1559 2950 
Q 2041 2950 2350 2633 
Q 2659 2316 2659 1784 
L 681 1784 
z
M 681 1966 
L 2006 1966 
Q 1991 2241 1941 2353 
Q 1863 2528 1708 2628 
Q 1553 2728 1384 2728 
Q 1125 2728 920 2526 
Q 716 2325 681 1966 
z
" transform="scale(0.015625)"/>
      <path id="TimesNewRomanPSMT-20" transform="scale(0.015625)"/>
      <path id="TimesNewRomanPSMT-54" d="M 3703 4238 
L 3750 3244 
L 3631 3244 
Q 3597 3506 3538 3619 
Q 3441 3800 3280 3886 
Q 3119 3972 2856 3972 
L 2259 3972 
L 2259 734 
Q 2259 344 2344 247 
Q 2463 116 2709 116 
L 2856 116 
L 2856 0 
L 1059 0 
L 1059 116 
L 1209 116 
Q 1478 116 1591 278 
Q 1659 378 1659 734 
L 1659 3972 
L 1150 3972 
Q 853 3972 728 3928 
Q 566 3869 450 3700 
Q 334 3531 313 3244 
L 194 3244 
L 244 4238 
L 3703 4238 
z
" transform="scale(0.015625)"/>
      <path id="TimesNewRomanPSMT-73" d="M 2050 2947 
L 2050 1972 
L 1947 1972 
Q 1828 2431 1642 2597 
Q 1456 2763 1169 2763 
Q 950 2763 815 2647 
Q 681 2531 681 2391 
Q 681 2216 781 2091 
Q 878 1963 1175 1819 
L 1631 1597 
Q 2266 1288 2266 781 
Q 2266 391 1970 151 
Q 1675 -88 1309 -88 
Q 1047 -88 709 6 
Q 606 38 541 38 
Q 469 38 428 -44 
L 325 -44 
L 325 978 
L 428 978 
Q 516 541 762 319 
Q 1009 97 1316 97 
Q 1531 97 1667 223 
Q 1803 350 1803 528 
Q 1803 744 1651 891 
Q 1500 1038 1047 1263 
Q 594 1488 453 1669 
Q 313 1847 313 2119 
Q 313 2472 555 2709 
Q 797 2947 1181 2947 
Q 1350 2947 1591 2875 
Q 1750 2828 1803 2828 
Q 1853 2828 1881 2850 
Q 1909 2872 1947 2947 
L 2050 2947 
z
" transform="scale(0.015625)"/>
      <path id="TimesNewRomanPSMT-6b" d="M 1047 4444 
L 1047 1597 
L 1775 2259 
Q 2006 2472 2044 2528 
Q 2069 2566 2069 2603 
Q 2069 2666 2017 2711 
Q 1966 2756 1847 2763 
L 1847 2863 
L 3091 2863 
L 3091 2763 
Q 2834 2756 2664 2684 
Q 2494 2613 2291 2428 
L 1556 1750 
L 2291 822 
Q 2597 438 2703 334 
Q 2853 188 2966 144 
Q 3044 113 3238 113 
L 3238 0 
L 1847 0 
L 1847 113 
Q 1966 116 2008 148 
Q 2050 181 2050 241 
Q 2050 313 1925 472 
L 1047 1594 
L 1047 644 
Q 1047 366 1086 278 
Q 1125 191 1197 153 
Q 1269 116 1509 113 
L 1509 0 
L 53 0 
L 53 113 
Q 272 113 381 166 
Q 447 200 481 272 
Q 528 375 528 628 
L 528 3234 
Q 528 3731 506 3842 
Q 484 3953 434 3995 
Q 384 4038 303 4038 
Q 238 4038 106 3984 
L 53 4094 
L 903 4444 
L 1047 4444 
z
" transform="scale(0.015625)"/>
     </defs>
     <use xlink:href="#TimesNewRomanPSMT-47"/>
     <use xlink:href="#TimesNewRomanPSMT-65" x="72.216797"/>
     <use xlink:href="#TimesNewRomanPSMT-6e" x="116.601562"/>
     <use xlink:href="#TimesNewRomanPSMT-65" x="166.601562"/>
     <use xlink:href="#TimesNewRomanPSMT-72" x="210.986328"/>
     <use xlink:href="#TimesNewRomanPSMT-61" x="244.287109"/>
     <use xlink:href="#TimesNewRomanPSMT-6c" x="288.671875"/>
     <use xlink:href="#TimesNewRomanPSMT-20" x="316.455078"/>
     <use xlink:href="#TimesNewRomanPSMT-54" x="339.705078"/>
     <use xlink:href="#TimesNewRomanPSMT-61" x="393.789062"/>
     <use xlink:href="#TimesNewRomanPSMT-73" x="438.173828"/>
     <use xlink:href="#TimesNewRomanPSMT-6b" x="477.089844"/>
     <use xlink:href="#TimesNewRomanPSMT-73" x="527.089844"/>
    </g>
   </g>
   <g id="patch_8">
    <path d="M 33.176266 120.465561 
Q 34.34704 117.870398 34.598284 117.313485 
" style="fill: none; stroke: #000000; stroke-width: 2; stroke-linecap: round"/>
    <path d="M 31.130312 120.137166 
L 34.598284 117.313485 
L 34.776445 121.782071 
" style="fill: none; stroke: #000000; stroke-width: 2; stroke-linecap: round"/>
   </g>
   <g id="patch_9">
    <path d="M 33.176266 274.814439 
Q 34.34704 277.409602 34.598284 277.966515 
" style="fill: none; stroke: #000000; stroke-width: 2; stroke-linecap: round"/>
    <path d="M 34.776445 273.497929 
L 34.598284 277.966515 
L 31.130312 275.142834 
" style="fill: none; stroke: #000000; stroke-width: 2; stroke-linecap: round"/>
   </g>
   <g id="text_30">
    <!-- Mathematics -->
    <g transform="translate(14.71 238.9625)rotate(-90)scale(0.16 -0.16)">
     <defs>
      <path id="TimesNewRomanPSMT-69" d="M 928 4444 
Q 1059 4444 1151 4351 
Q 1244 4259 1244 4128 
Q 1244 3997 1151 3903 
Q 1059 3809 928 3809 
Q 797 3809 703 3903 
Q 609 3997 609 4128 
Q 609 4259 701 4351 
Q 794 4444 928 4444 
z
M 1188 2947 
L 1188 647 
Q 1188 378 1227 289 
Q 1266 200 1342 156 
Q 1419 113 1622 113 
L 1622 0 
L 231 0 
L 231 113 
Q 441 113 512 153 
Q 584 194 626 287 
Q 669 381 669 647 
L 669 1750 
Q 669 2216 641 2353 
Q 619 2453 572 2492 
Q 525 2531 444 2531 
Q 356 2531 231 2484 
L 188 2597 
L 1050 2947 
L 1188 2947 
z
" transform="scale(0.015625)"/>
      <path id="TimesNewRomanPSMT-63" d="M 2631 1088 
Q 2516 522 2178 217 
Q 1841 -88 1431 -88 
Q 944 -88 581 321 
Q 219 731 219 1428 
Q 219 2103 620 2525 
Q 1022 2947 1584 2947 
Q 2006 2947 2278 2723 
Q 2550 2500 2550 2259 
Q 2550 2141 2473 2067 
Q 2397 1994 2259 1994 
Q 2075 1994 1981 2113 
Q 1928 2178 1911 2362 
Q 1894 2547 1784 2644 
Q 1675 2738 1481 2738 
Q 1169 2738 978 2506 
Q 725 2200 725 1697 
Q 725 1184 976 792 
Q 1228 400 1656 400 
Q 1963 400 2206 609 
Q 2378 753 2541 1131 
L 2631 1088 
z
" transform="scale(0.015625)"/>
     </defs>
     <use xlink:href="#TimesNewRomanPSMT-4d"/>
     <use xlink:href="#TimesNewRomanPSMT-61" x="88.916016"/>
     <use xlink:href="#TimesNewRomanPSMT-74" x="133.300781"/>
     <use xlink:href="#TimesNewRomanPSMT-68" x="161.083984"/>
     <use xlink:href="#TimesNewRomanPSMT-65" x="211.083984"/>
     <use xlink:href="#TimesNewRomanPSMT-6d" x="255.46875"/>
     <use xlink:href="#TimesNewRomanPSMT-61" x="333.251953"/>
     <use xlink:href="#TimesNewRomanPSMT-74" x="377.636719"/>
     <use xlink:href="#TimesNewRomanPSMT-69" x="405.419922"/>
     <use xlink:href="#TimesNewRomanPSMT-63" x="433.203125"/>
     <use xlink:href="#TimesNewRomanPSMT-73" x="477.587891"/>
    </g>
   </g>
   <g id="patch_10">
    <path d="M 175.532444 388.339703 
Q 172.741825 387.775761 172.142969 387.654741 
" style="fill: none; stroke: #000000; stroke-width: 2; stroke-linecap: round"/>
    <path d="M 175.66755 390.407435 
L 172.142969 387.654741 
L 176.459873 386.486692 
" style="fill: none; stroke: #000000; stroke-width: 2; stroke-linecap: round"/>
   </g>
   <g id="patch_11">
    <path d="M 326.011473 353.993846 
Q 328.281049 352.274948 328.768091 351.906079 
" style="fill: none; stroke: #000000; stroke-width: 2; stroke-linecap: round"/>
    <path d="M 324.371898 352.726738 
L 328.768091 351.906079 
L 326.786903 355.915429 
" style="fill: none; stroke: #000000; stroke-width: 2; stroke-linecap: round"/>
   </g>
   <g id="text_31">
    <!-- Code -->
    <g transform="translate(240.127624 400.422633)rotate(-12.857143)scale(0.16 -0.16)">
     <defs>
      <path id="TimesNewRomanPSMT-64" d="M 2222 322 
Q 2013 103 1813 7 
Q 1613 -88 1381 -88 
Q 913 -88 563 304 
Q 213 697 213 1313 
Q 213 1928 600 2439 
Q 988 2950 1597 2950 
Q 1975 2950 2222 2709 
L 2222 3238 
Q 2222 3728 2198 3840 
Q 2175 3953 2125 3993 
Q 2075 4034 2000 4034 
Q 1919 4034 1784 3984 
L 1744 4094 
L 2597 4444 
L 2738 4444 
L 2738 1134 
Q 2738 631 2761 520 
Q 2784 409 2836 365 
Q 2888 322 2956 322 
Q 3041 322 3181 375 
L 3216 266 
L 2366 -88 
L 2222 -88 
L 2222 322 
z
M 2222 541 
L 2222 2016 
Q 2203 2228 2109 2403 
Q 2016 2578 1861 2667 
Q 1706 2756 1559 2756 
Q 1284 2756 1069 2509 
Q 784 2184 784 1559 
Q 784 928 1059 592 
Q 1334 256 1672 256 
Q 1956 256 2222 541 
z
" transform="scale(0.015625)"/>
     </defs>
     <use xlink:href="#TimesNewRomanPSMT-43"/>
     <use xlink:href="#TimesNewRomanPSMT-6f" x="66.699219"/>
     <use xlink:href="#TimesNewRomanPSMT-64" x="116.699219"/>
     <use xlink:href="#TimesNewRomanPSMT-65" x="166.699219"/>
    </g>
   </g>
   <g id="legend_1">
    <g id="line2d_17">
     <path d="M 333.189605 222.171937 
L 347.189605 222.171937 
L 361.189605 222.171937 
" style="fill: none; stroke: #ff0000; stroke-width: 2; stroke-linecap: square"/>
    </g>
    <g id="text_32">
     <!-- LLaDA 8B Chat -->
     <g transform="translate(372.389605 227.071937)scale(0.14 -0.14)">
      <defs>
       <path id="TimesNewRomanPSMT-44" d="M 109 0 
L 109 116 
L 269 116 
Q 538 116 650 288 
Q 719 391 719 750 
L 719 3488 
Q 719 3884 631 3984 
Q 509 4122 269 4122 
L 109 4122 
L 109 4238 
L 1834 4238 
Q 2784 4238 3279 4022 
Q 3775 3806 4076 3303 
Q 4378 2800 4378 2141 
Q 4378 1256 3841 663 
Q 3238 0 2003 0 
L 109 0 
z
M 1319 306 
Q 1716 219 1984 219 
Q 2709 219 3187 728 
Q 3666 1238 3666 2109 
Q 3666 2988 3187 3494 
Q 2709 4000 1959 4000 
Q 1678 4000 1319 3909 
L 1319 306 
z
" transform="scale(0.015625)"/>
      </defs>
      <use xlink:href="#TimesNewRomanPSMT-4c"/>
      <use xlink:href="#TimesNewRomanPSMT-4c" x="61.083984"/>
      <use xlink:href="#TimesNewRomanPSMT-61" x="122.167969"/>
      <use xlink:href="#TimesNewRomanPSMT-44" x="166.552734"/>
      <use xlink:href="#TimesNewRomanPSMT-41" x="238.769531"/>
      <use xlink:href="#TimesNewRomanPSMT-20" x="305.486328"/>
      <use xlink:href="#TimesNewRomanPSMT-38" x="330.486328"/>
      <use xlink:href="#TimesNewRomanPSMT-42" x="380.486328"/>
      <use xlink:href="#TimesNewRomanPSMT-20" x="447.185547"/>
      <use xlink:href="#TimesNewRomanPSMT-43" x="472.185547"/>
      <use xlink:href="#TimesNewRomanPSMT-68" x="538.884766"/>
      <use xlink:href="#TimesNewRomanPSMT-61" x="588.884766"/>
      <use xlink:href="#TimesNewRomanPSMT-74" x="633.269531"/>
     </g>
    </g>
    <g id="line2d_18">
     <path d="M 333.189605 241.966625 
L 347.189605 241.966625 
L 361.189605 241.966625 
" style="fill: none; stroke: #9400d3; stroke-width: 2; stroke-linecap: square"/>
    </g>
    <g id="text_33">
     <!-- LLaMA 3 8B Chat -->
     <g transform="translate(372.389605 246.866625)scale(0.14 -0.14)">
      <use xlink:href="#TimesNewRomanPSMT-4c"/>
      <use xlink:href="#TimesNewRomanPSMT-4c" x="61.083984"/>
      <use xlink:href="#TimesNewRomanPSMT-61" x="122.167969"/>
      <use xlink:href="#TimesNewRomanPSMT-4d" x="166.552734"/>
      <use xlink:href="#TimesNewRomanPSMT-41" x="255.46875"/>
      <use xlink:href="#TimesNewRomanPSMT-20" x="322.185547"/>
      <use xlink:href="#TimesNewRomanPSMT-33" x="347.185547"/>
      <use xlink:href="#TimesNewRomanPSMT-20" x="397.185547"/>
      <use xlink:href="#TimesNewRomanPSMT-38" x="422.185547"/>
      <use xlink:href="#TimesNewRomanPSMT-42" x="472.185547"/>
      <use xlink:href="#TimesNewRomanPSMT-20" x="538.884766"/>
      <use xlink:href="#TimesNewRomanPSMT-43" x="563.884766"/>
      <use xlink:href="#TimesNewRomanPSMT-68" x="630.583984"/>
      <use xlink:href="#TimesNewRomanPSMT-61" x="680.583984"/>
      <use xlink:href="#TimesNewRomanPSMT-74" x="724.96875"/>
     </g>
    </g>
    <g id="line2d_19">
     <path d="M 333.189605 261.761312 
L 347.189605 261.761312 
L 361.189605 261.761312 
" style="fill: none; stroke: #0000ff; stroke-width: 2; stroke-linecap: square"/>
    </g>
    <g id="text_34">
     <!-- LLaMA 2 7B Chat -->
     <g transform="translate(372.389605 266.661312)scale(0.14 -0.14)">
      <use xlink:href="#TimesNewRomanPSMT-4c"/>
      <use xlink:href="#TimesNewRomanPSMT-4c" x="61.083984"/>
      <use xlink:href="#TimesNewRomanPSMT-61" x="122.167969"/>
      <use xlink:href="#TimesNewRomanPSMT-4d" x="166.552734"/>
      <use xlink:href="#TimesNewRomanPSMT-41" x="255.46875"/>
      <use xlink:href="#TimesNewRomanPSMT-20" x="322.185547"/>
      <use xlink:href="#TimesNewRomanPSMT-32" x="347.185547"/>
      <use xlink:href="#TimesNewRomanPSMT-20" x="397.185547"/>
      <use xlink:href="#TimesNewRomanPSMT-37" x="422.185547"/>
      <use xlink:href="#TimesNewRomanPSMT-42" x="472.185547"/>
      <use xlink:href="#TimesNewRomanPSMT-20" x="538.884766"/>
      <use xlink:href="#TimesNewRomanPSMT-43" x="563.884766"/>
      <use xlink:href="#TimesNewRomanPSMT-68" x="630.583984"/>
      <use xlink:href="#TimesNewRomanPSMT-61" x="680.583984"/>
      <use xlink:href="#TimesNewRomanPSMT-74" x="724.96875"/>
     </g>
    </g>
   </g>
  </g>
 </g>
 <defs>
  <clipPath id="p29d7ed03f2">
   <path d="M 405.205605 197.64 
C 405.205605 172.158901 400.186384 146.925573 390.435189 123.384107 
C 380.683995 99.842641 366.390463 78.450858 348.372605 60.433 
C 330.354747 42.415142 308.962964 28.12161 285.421498 18.370416 
C 261.880032 8.619221 236.646704 3.6 211.165605 3.6 
C 185.684506 3.6 160.451178 8.619221 136.909712 18.370416 
C 113.368245 28.12161 91.976463 42.415142 73.958605 60.433 
C 55.940747 78.450858 41.647215 99.842641 31.89602 123.384107 
C 22.144826 146.925573 17.125605 172.158901 17.125605 197.64 
C 17.125605 223.121099 22.144826 248.354427 31.89602 271.895893 
C 41.647215 295.437359 55.940747 316.829142 73.958605 334.847 
C 91.976463 352.864858 113.368245 367.15839 136.909712 376.909584 
C 160.451178 386.660779 185.684506 391.68 211.165605 391.68 
C 236.646704 391.68 261.880032 386.660779 285.421498 376.909584 
C 308.962964 367.15839 330.354747 352.864858 348.372605 334.847 
C 366.390463 316.829142 380.683995 295.437359 390.435189 271.895893 
C 400.186384 248.354427 405.205605 223.121099 405.205605 197.64 
M 211.165605 197.64 
C 211.165605 197.64 211.165605 197.64 211.165605 197.64 
C 211.165605 197.64 211.165605 197.64 211.165605 197.64 
C 211.165605 197.64 211.165605 197.64 211.165605 197.64 
C 211.165605 197.64 211.165605 197.64 211.165605 197.64 
C 211.165605 197.64 211.165605 197.64 211.165605 197.64 
C 211.165605 197.64 211.165605 197.64 211.165605 197.64 
C 211.165605 197.64 211.165605 197.64 211.165605 197.64 
C 211.165605 197.64 211.165605 197.64 211.165605 197.64 
C 211.165605 197.64 211.165605 197.64 211.165605 197.64 
C 211.165605 197.64 211.165605 197.64 211.165605 197.64 
C 211.165605 197.64 211.165605 197.64 211.165605 197.64 
C 211.165605 197.64 211.165605 197.64 211.165605 197.64 
C 211.165605 197.64 211.165605 197.64 211.165605 197.64 
C 211.165605 197.64 211.165605 197.64 211.165605 197.64 
C 211.165605 197.64 211.165605 197.64 211.165605 197.64 
C 211.165605 197.64 211.165605 197.64 211.165605 197.64 
M 405.205605 197.64 
z
"/>
  </clipPath>
 </defs>
</svg>
